<svg width="119" height="119" viewBox="0 0 119 119" fill="none" xmlns="http://www.w3.org/2000/svg">
<path d="M88.9755 57.0173C88.9755 67.6048 85.5758 74.9047 80.2655 79.5789C74.9226 84.2818 67.4483 86.5 59.0001 86.5C50.5518 86.5 43.0776 84.2818 37.7347 79.5789C32.4243 74.9047 29.0247 67.6048 29.0247 57.0173C29.0247 46.4239 32.4305 38.5832 37.7877 33.3894C43.1564 28.1844 50.6267 25.5 59.0001 25.5C67.3734 25.5 74.8438 28.1844 80.2124 33.3894C85.5696 38.5832 88.9755 46.4239 88.9755 57.0173Z" fill="white" stroke="black" stroke-width="3"/>
<path d="M49.5574 68.0654C50.2434 71.2753 57.1034 76.3194 67.3934 73.5681" stroke="black" stroke-width="3" stroke-linecap="round"/>
<ellipse cx="57.9509" cy="51.2786" rx="4.19672" ry="9.44262" fill="black"/>
<ellipse cx="74.2132" cy="51.2786" rx="3.67213" ry="9.44262" fill="black"/>
</svg>
