<svg width="24" height="24" viewBox="0 0 24 24" fill="none" xmlns="http://www.w3.org/2000/svg">
<path fill-rule="evenodd" clip-rule="evenodd" d="M13.6661 13.7752C15.7094 12.3445 16.2059 9.52836 14.7752 7.4851C13.3445 5.44185 10.5283 4.94528 8.48509 6.37598C6.44184 7.80668 5.94527 10.6229 7.37597 12.6661C8.80667 14.7094 11.6229 15.2059 13.6661 13.7752ZM14.8133 15.4136C17.7613 13.3493 18.4778 9.28601 16.4135 6.33795C14.3493 3.38989 10.286 2.67342 7.33794 4.73768C4.38988 6.80193 3.67341 10.8652 5.73766 13.8133C7.80192 16.7613 11.8652 17.4778 14.8133 15.4136Z" fill="#131F60"/>
<path fill-rule="evenodd" clip-rule="evenodd" d="M14.2397 14.5944C14.6921 14.2776 15.3156 14.3876 15.6324 14.84L18.2135 18.5262C18.5303 18.9786 18.4203 19.6021 17.9679 19.9189C17.5155 20.2357 16.892 20.1257 16.5752 19.6733L13.9941 15.9871C13.6773 15.5347 13.7873 14.9112 14.2397 14.5944Z" fill="#131F60"/>
</svg>
