<svg width="24" height="24" viewBox="0 0 24 24" fill="none" xmlns="http://www.w3.org/2000/svg">
<path fill-rule="evenodd" clip-rule="evenodd" d="M12 19.5C16.1421 19.5 19.5 16.1421 19.5 12C19.5 7.85786 16.1421 4.5 12 4.5C7.85786 4.5 4.5 7.85786 4.5 12C4.5 16.1421 7.85786 19.5 12 19.5ZM12 21C16.9706 21 21 16.9706 21 12C21 7.02944 16.9706 3 12 3C7.02944 3 3 7.02944 3 12C3 16.9706 7.02944 21 12 21Z" fill="#131F60"/>
<path fill-rule="evenodd" clip-rule="evenodd" d="M9.16033 9.16034C9.47399 8.84669 9.98253 8.84669 10.2962 9.16034L14.8396 13.7038C15.1533 14.0174 15.1533 14.526 14.8396 14.8396C14.526 15.1533 14.0174 15.1533 13.7038 14.8396L9.16033 10.2962C8.84668 9.98254 8.84668 9.474 9.16033 9.16034Z" fill="#131F60"/>
<path fill-rule="evenodd" clip-rule="evenodd" d="M9.16034 14.8397C8.84669 14.526 8.84669 14.0175 9.16034 13.7038L13.7038 9.16039C14.0174 8.84673 14.526 8.84673 14.8396 9.16039C15.1533 9.47405 15.1533 9.98259 14.8396 10.2962L10.2962 14.8397C9.98254 15.1533 9.474 15.1533 9.16034 14.8397Z" fill="#131F60"/>
</svg>
