<svg width="24" height="24" viewBox="0 0 24 24" fill="none" xmlns="http://www.w3.org/2000/svg">
<path fill-rule="evenodd" clip-rule="evenodd" d="M4.80305 11.3635C4.51015 11.0706 4.51015 10.5957 4.80304 10.3028L11.4696 3.63622C11.6102 3.49557 11.801 3.41655 11.9999 3.41655C12.1988 3.41655 12.3896 3.49557 12.5302 3.63622L19.1968 10.3028C19.4897 10.5957 19.4897 11.0706 19.1968 11.3635C18.9039 11.6563 18.429 11.6563 18.1361 11.3635L12.7499 5.97721L12.7499 20.1664C12.7499 20.5807 12.4141 20.9164 11.9999 20.9164C11.5857 20.9164 11.2499 20.5807 11.2499 20.1664V5.97722L5.86371 11.3635C5.57081 11.6563 5.09594 11.6564 4.80305 11.3635Z" fill="#131F60"/>
</svg>
