<svg width="24" height="24" viewBox="0 0 24 24" fill="none" xmlns="http://www.w3.org/2000/svg">
<path fill-rule="evenodd" clip-rule="evenodd" d="M11.1968 19.3635C10.9039 19.6564 10.429 19.6564 10.1361 19.3635L3.46954 12.6969C3.32888 12.5563 3.24986 12.3655 3.24986 12.1666C3.24986 11.9677 3.32888 11.7769 3.46953 11.6363L10.1361 4.9697C10.429 4.67681 10.9039 4.67681 11.1968 4.9697C11.4897 5.26259 11.4897 5.73747 11.1968 6.03036L5.81052 11.4166L19.9998 11.4166C20.414 11.4166 20.7498 11.7524 20.7498 12.1666C20.7498 12.5808 20.414 12.9166 19.9998 12.9166L5.81053 12.9166L11.1968 18.3028C11.4897 18.5957 11.4897 19.0706 11.1968 19.3635Z" fill="#131F60"/>
</svg>
