<svg width="24" height="24" viewBox="0 0 24 24" fill="none" xmlns="http://www.w3.org/2000/svg">
<path fill-rule="evenodd" clip-rule="evenodd" d="M18.0303 5.46967C18.3232 5.76256 18.3232 6.23744 18.0303 6.53033L6.03033 18.5303C5.73744 18.8232 5.26256 18.8232 4.96967 18.5303C4.67678 18.2374 4.67678 17.7626 4.96967 17.4697L16.9697 5.46967C17.2626 5.17678 17.7374 5.17678 18.0303 5.46967Z" fill="#131F60"/>
<path fill-rule="evenodd" clip-rule="evenodd" d="M6.75 6C6.75 5.58579 7.08579 5.25 7.5 5.25H17.5C17.9142 5.25 18.25 5.58579 18.25 6V16C18.25 16.4142 17.9142 16.75 17.5 16.75C17.0858 16.75 16.75 16.4142 16.75 16V6.75H7.5C7.08579 6.75 6.75 6.41421 6.75 6Z" fill="#131F60"/>
</svg>
