<svg width="24" height="24" viewBox="0 0 24 24" fill="none" xmlns="http://www.w3.org/2000/svg">
<path fill-rule="evenodd" clip-rule="evenodd" d="M19.1968 12.8031C19.4897 13.096 19.4897 13.5709 19.1968 13.8638L12.5303 20.5303C12.3897 20.671 12.1989 20.75 12 20.75C11.8011 20.75 11.6103 20.671 11.4697 20.5303L4.80308 13.8638C4.51018 13.5709 4.51018 13.096 4.80307 12.8031C5.09597 12.5102 5.57084 12.5102 5.86374 12.8031L11.25 18.1894L11.25 4.00012C11.25 3.58591 11.5858 3.25012 12 3.25012C12.4142 3.25012 12.75 3.58591 12.75 4.00012V18.1893L18.1362 12.8031C18.4291 12.5102 18.9039 12.5102 19.1968 12.8031Z" fill="#131F60"/>
</svg>
