<svg width="24" height="24" viewBox="0 0 24 24" fill="none" xmlns="http://www.w3.org/2000/svg">
<path fill-rule="evenodd" clip-rule="evenodd" d="M11.0293 3.74576C11.6171 3.35387 12.3829 3.35387 12.9707 3.74576L18.9707 7.74576C19.4576 8.07032 19.75 8.61673 19.75 9.20184V15.2773C19.75 15.8624 19.4576 16.4088 18.9707 16.7334L12.9707 20.7334C12.3829 21.1253 11.6171 21.1253 11.0293 20.7334L5.02927 16.7334C4.54243 16.4088 4.25 15.8624 4.25 15.2773V9.20184C4.25 8.61673 4.54243 8.07032 5.02927 7.74576L11.0293 3.74576ZM12.1387 4.99383C12.0547 4.93785 11.9453 4.93785 11.8613 4.99383L5.86132 8.99383C5.79178 9.0402 5.75 9.11826 5.75 9.20184V15.2773C5.75 15.3609 5.79178 15.439 5.86133 15.4853L11.8613 19.4853C11.9453 19.5413 12.0547 19.5413 12.1387 19.4853L18.1387 15.4853C18.2082 15.439 18.25 15.3609 18.25 15.2773V9.20184C18.25 9.11826 18.2082 9.0402 18.1387 8.99383L12.1387 4.99383Z" fill="#131F60"/>
<path fill-rule="evenodd" clip-rule="evenodd" d="M4.36398 8.85248C4.58351 8.50123 5.04623 8.39445 5.39748 8.61398L11.8675 12.6577C11.9485 12.7084 12.0514 12.7084 12.1325 12.6577L18.6025 8.61398C18.9537 8.39445 19.4164 8.50123 19.636 8.85248C19.8555 9.20373 19.7487 9.66644 19.3975 9.88598L12.9275 13.9297C12.36 14.2844 11.64 14.2844 11.0725 13.9297L4.60248 9.88598C4.25123 9.66644 4.14445 9.20373 4.36398 8.85248Z" fill="#131F60"/>
<path fill-rule="evenodd" clip-rule="evenodd" d="M12 12.875C12.4142 12.875 12.75 13.2108 12.75 13.625V19.75C12.75 20.1642 12.4142 20.5 12 20.5C11.5858 20.5 11.25 20.1642 11.25 19.75V13.625C11.25 13.2108 11.5858 12.875 12 12.875Z" fill="#131F60"/>
</svg>
