<svg width="24" height="24" viewBox="0 0 24 24" fill="none" xmlns="http://www.w3.org/2000/svg">
<path fill-rule="evenodd" clip-rule="evenodd" d="M12 6.05553L11.9829 6.05534C11.9802 6.05531 11.9775 6.05528 11.9747 6.05525C11.9611 6.05595 11.9474 6.05646 11.9337 6.05678C10.3289 6.09403 9.4876 6.66098 8.94231 7.42246C8.32294 8.28739 7.96807 9.5721 7.76472 11.2209C7.53969 13.0455 6.88857 14.5182 6.10359 15.5978C5.63841 16.2376 5.08519 16.7923 4.5 17.1835V17.75H19.5L19.5 17.1835C18.9148 16.7923 18.3616 16.2376 17.8964 15.5978C17.1114 14.5182 16.4603 13.0455 16.2353 11.2209C16.0319 9.5721 15.6771 8.28739 15.0577 7.42246C14.5124 6.66098 13.6711 6.09403 12.0663 6.05678C12.0526 6.05646 12.0389 6.05595 12.0252 6.05525C12.0225 6.05528 12.0198 6.05531 12.0171 6.05534L12 6.05553ZM11.2347 5.78084C11.3168 5.83867 11.4046 5.88835 11.4967 5.92898C11.4041 5.88832 11.3164 5.83856 11.2347 5.78084ZM10.6067 4.70064C10.6068 4.70062 10.6068 4.70061 10.6069 4.70059C11.0009 4.61709 11.4305 4.56806 11.8988 4.55718C11.8995 4.55717 11.9 4.55665 11.9 4.55603C11.9 4.55539 11.9005 4.55487 11.9012 4.55487C11.9343 4.55487 11.9672 4.55506 12 4.55544C12.0328 4.55506 12.0657 4.55487 12.0988 4.55487C12.0995 4.55487 12.1 4.55539 12.1 4.55603C12.1 4.55665 12.1005 4.55717 12.1012 4.55718C12.5695 4.56806 12.9991 4.61709 13.3931 4.70059C13.3932 4.70061 13.3933 4.70062 13.3933 4.70064C16.4157 5.34122 17.3506 8.00957 17.724 11.0373C18.1114 14.1786 19.9464 15.9676 20.9795 16.2494C20.9809 16.2498 20.9823 16.25 20.9837 16.25H20.9951C20.9978 16.25 21 16.2522 21 16.2549L21 18.25C21 18.8023 20.5523 19.25 20 19.25H4C3.44772 19.25 3 18.8023 3 18.25V16.2549C3 16.2522 3.00218 16.25 3.00486 16.25H3.01628C3.01772 16.25 3.01909 16.2498 3.02048 16.2494C4.0536 15.9676 5.88857 14.1786 6.276 11.0373C6.64942 8.00957 7.58428 5.34122 10.6067 4.70064ZM12.4902 5.93469C12.5899 5.89175 12.6849 5.83822 12.7732 5.77522C12.6854 5.83808 12.5906 5.89172 12.4902 5.93469Z" fill="#131F60"/>
<path fill-rule="evenodd" clip-rule="evenodd" d="M10.25 18.75C10.25 19.7165 11.0335 20.5 12 20.5C12.9665 20.5 13.75 19.7165 13.75 18.75H15.25C15.25 20.5449 13.7949 22 12 22C10.2051 22 8.75 20.5449 8.75 18.75H10.25Z" fill="#131F60"/>
<path fill-rule="evenodd" clip-rule="evenodd" d="M12.75 5.5V4.75C12.75 4.33579 12.4142 4 12 4C11.5858 4 11.25 4.33579 11.25 4.75V5.5L9.75 5.5V4.75C9.75 3.50736 10.7574 2.5 12 2.5C13.2426 2.5 14.25 3.50736 14.25 4.75V5.5H12.75Z" fill="#131F60"/>
</svg>
