<svg width="24" height="24" viewBox="0 0 24 24" fill="none" xmlns="http://www.w3.org/2000/svg">
<path fill-rule="evenodd" clip-rule="evenodd" d="M19 8.5H5C4.17157 8.5 3.5 9.17157 3.5 10V14C3.5 14.8284 4.17157 15.5 5 15.5H19C19.8284 15.5 20.5 14.8284 20.5 14V10C20.5 9.17157 19.8284 8.5 19 8.5ZM5 7C3.34315 7 2 8.34315 2 10V14C2 15.6569 3.34315 17 5 17H19C20.6569 17 22 15.6569 22 14V10C22 8.34315 20.6569 7 19 7H5Z" fill="#131F60"/>
<path fill-rule="evenodd" clip-rule="evenodd" d="M5.75 12C5.75 11.5858 6.08579 11.25 6.5 11.25H9.5C9.91421 11.25 10.25 11.5858 10.25 12C10.25 12.4142 9.91421 12.75 9.5 12.75H6.5C6.08579 12.75 5.75 12.4142 5.75 12Z" fill="#131F60"/>
</svg>
