<svg width="24" height="24" viewBox="0 0 24 24" fill="none" xmlns="http://www.w3.org/2000/svg">
<path d="M6.5 19.5V4.5H12.6166C13.7405 4.5 14.6779 4.66357 15.4288 4.99072C16.1797 5.31787 16.7441 5.77197 17.1221 6.35303C17.5 6.9292 17.689 7.59326 17.689 8.34522C17.689 8.93115 17.5696 9.44629 17.3309 9.89062C17.0922 10.3301 16.764 10.6914 16.3463 10.9746C15.9335 11.2529 15.4611 11.4507 14.929 11.5679V11.7144C15.5108 11.7388 16.0554 11.8999 16.5626 12.1978C17.0748 12.4956 17.4901 12.9131 17.8083 13.4502C18.1266 13.9824 18.2857 14.6172 18.2857 15.3545C18.2857 16.1504 18.0843 16.8608 17.6815 17.4858C17.2837 18.106 16.6944 18.5967 15.9137 18.958C15.1329 19.3193 14.1707 19.5 13.0269 19.5H6.5ZM9.72988 16.9072H12.363C13.2631 16.9072 13.9195 16.7388 14.3323 16.4019C14.745 16.0601 14.9514 15.606 14.9514 15.0395C14.9514 14.6245 14.8495 14.2583 14.6456 13.9409C14.4417 13.6235 14.1508 13.3745 13.7728 13.1938C13.3999 13.0132 12.9548 12.9229 12.4376 12.9229H9.72988V16.9072ZM9.72988 10.7769H12.1243C12.5669 10.7769 12.9598 10.7012 13.3029 10.5498C13.651 10.3936 13.9245 10.1738 14.1234 9.89062C14.3273 9.60742 14.4292 9.26807 14.4292 8.87256C14.4292 8.33057 14.2328 7.89355 13.84 7.56152C13.4521 7.22949 12.9001 7.06348 12.184 7.06348H9.72988V10.7769Z" fill="#131F60"/>
</svg>
