<svg width="24" height="24" viewBox="0 0 24 24" fill="none" xmlns="http://www.w3.org/2000/svg">
<path d="M5.16247 12.7395L10.936 3.48834C11.554 2.4981 13.0523 3.14043 12.7958 4.28561L10.7231 13.5368C10.6166 14.0125 10.2028 14.3498 9.72579 14.3498H6.02488C5.21677 14.3498 4.72758 13.4364 5.16247 12.7395Z" fill="#131F60"/>
<path d="M18.8375 11.2605L13.064 20.5117C12.446 21.5019 10.9477 20.8596 11.2042 19.7144L13.2769 10.4632C13.3834 9.9875 13.7972 9.65025 14.2742 9.65025H17.9751C18.7832 9.65025 19.2724 10.5636 18.8375 11.2605Z" fill="#131F60"/>
<path d="M9.2655 10.714C9.2655 10.1358 9.72361 9.66711 10.2887 9.66711H15.9024C16.4675 9.66711 16.9257 10.1358 16.9257 10.714V13.3134C16.9257 13.8916 16.4675 14.3603 15.9024 14.3603H10.2887C9.72361 14.3603 9.2655 13.8916 9.2655 13.3134V10.714Z" fill="#131F60"/>
</svg>
