<svg width="24" height="24" viewBox="0 0 24 24" fill="none" xmlns="http://www.w3.org/2000/svg">
<path fill-rule="evenodd" clip-rule="evenodd" d="M18 4.5H6C5.17157 4.5 4.5 5.17157 4.5 6V18C4.5 18.8284 5.17157 19.5 6 19.5H18C18.8284 19.5 19.5 18.8284 19.5 18V6C19.5 5.17157 18.8284 4.5 18 4.5ZM6 3C4.34315 3 3 4.34315 3 6V18C3 19.6569 4.34315 21 6 21H18C19.6569 21 21 19.6569 21 18V6C21 4.34315 19.6569 3 18 3H6Z" fill="#131F60"/>
<path fill-rule="evenodd" clip-rule="evenodd" d="M15.9895 8.93175C16.3033 9.20207 16.3386 9.67563 16.0683 9.98948L11.8534 14.883C11.3547 15.4619 10.4578 15.4619 9.95915 14.883L7.93175 12.5292C7.66142 12.2153 7.69671 11.7418 8.01055 11.4714C8.32439 11.2011 8.79796 11.2364 9.06828 11.5502L10.9063 13.6841L14.9317 9.01055C15.2021 8.69671 15.6756 8.66142 15.9895 8.93175Z" fill="#131F60"/>
</svg>
