<svg width="24" height="24" viewBox="0 0 24 24" fill="none" xmlns="http://www.w3.org/2000/svg">
<path d="M3.33179 7.64362C3.33179 5.62059 4.97178 3.98059 6.99482 3.98059C7.91429 3.98059 8.75463 4.31936 9.39784 4.8789C9.72038 5.15948 9.58179 5.65395 9.2214 5.8839C8.90719 6.08438 8.48745 6.03451 8.17531 5.83083C7.83587 5.60933 7.43038 5.48059 6.99482 5.48059C5.80021 5.48059 4.83179 6.44901 4.83179 7.64362C4.83179 8.63866 5.50366 9.47676 6.41849 9.72903C6.65061 9.79304 6.8317 9.99887 6.8317 10.2396C6.8317 10.8803 6.94837 11.4934 7.16145 12.0591C7.20479 12.1741 7.11679 12.3 6.99384 12.3C5.23835 12.3 3.73013 13.3661 3.08454 14.8892C2.99431 15.102 3.0347 15.2866 3.18361 15.4554C3.34992 15.6439 3.64958 15.7938 4.00008 15.7938H4.99192C5.25424 15.7938 5.42471 16.0733 5.32233 16.3148C5.09589 16.8491 4.62242 17.2938 4.04218 17.2938H4.00008C3.246 17.2938 2.52709 16.9786 2.05875 16.4477C1.57299 15.897 1.36264 15.1079 1.70349 14.3038C2.38765 12.6897 3.78976 11.4522 5.51047 10.9934C4.22699 10.4239 3.33179 9.13828 3.33179 7.64362Z" fill="#131F60"/>
<path fill-rule="evenodd" clip-rule="evenodd" d="M10.5743 6.86215C10.0087 7.10034 9.51536 7.47648 9.13654 7.94844C8.83841 8.31991 8.61118 8.75086 8.47543 9.2205C8.38193 9.544 8.3317 9.88603 8.3317 10.2396C8.3317 11.0901 8.62151 11.8728 9.10776 12.4945C9.3982 12.8659 9.75872 13.1797 10.1694 13.4163C10.1957 13.4314 10.2221 13.4462 10.2488 13.4606C10.3341 13.507 10.4215 13.5501 10.5108 13.5897C10.387 13.6227 10.2649 13.6597 10.1446 13.7006C8.99929 14.0899 8.01683 14.8307 7.32526 15.7938C7.15979 16.0243 7.01088 16.2675 6.88046 16.5216C6.81702 16.6453 6.75792 16.7716 6.70339 16.9002C6.64747 17.0322 6.60639 17.1637 6.57892 17.2938C6.43899 17.9569 6.6527 18.5838 7.05875 19.0441C7.5271 19.575 8.24601 19.8903 9.00008 19.8903H14.9879C15.742 19.8903 16.4609 19.575 16.9292 19.0441C17.415 18.4935 17.6253 17.7043 17.2845 16.9002C16.6004 15.2864 15.1986 14.0489 13.4783 13.59C14.7623 13.0206 15.658 11.7347 15.658 10.2396C15.658 8.21657 14.018 6.57654 11.9949 6.57654C11.4912 6.57654 11.0112 6.67819 10.5743 6.86215ZM11.9949 8.07654C10.8002 8.07654 9.83179 9.045 9.83179 10.2396C9.83179 11.4343 10.8002 12.4028 11.9949 12.4028C13.1896 12.4028 14.158 11.4343 14.158 10.2396C14.158 9.045 13.1896 8.07654 11.9949 8.07654ZM11.994 14.8964C10.2384 14.8964 8.73014 15.9625 8.08454 17.4856C7.99431 17.6985 8.03471 17.883 8.18361 18.0518C8.34992 18.2403 8.64959 18.3903 9.00008 18.3903H14.9879C15.3384 18.3903 15.6381 18.2403 15.8044 18.0518C15.9533 17.883 15.9937 17.6985 15.9034 17.4856C15.2578 15.9625 13.7496 14.8964 11.994 14.8964Z" fill="#131F60"/>
<path d="M19.9878 17.2938H19.9456C19.3654 17.2938 18.8919 16.849 18.6655 16.3148C18.5631 16.0733 18.7336 15.7938 18.9959 15.7938H19.9878C20.3383 15.7938 20.6379 15.6438 20.8042 15.4553C20.9531 15.2865 20.9935 15.102 20.9033 14.8891C20.2577 13.3661 18.7495 12.3 16.994 12.3C16.8719 12.3 16.7845 12.1749 16.8276 12.0606C17.041 11.4945 17.1579 10.8809 17.1579 10.2396C17.1579 9.99884 17.339 9.79298 17.5712 9.72896C18.486 9.47668 19.1578 8.63859 19.1578 7.6436C19.1578 6.449 18.1894 5.48059 16.9948 5.48059C16.5592 5.48059 16.1538 5.60933 15.8143 5.83082C15.5022 6.03451 15.0824 6.08438 14.7682 5.8839C14.4078 5.65395 14.2692 5.15948 14.5918 4.8789C15.235 4.31936 16.0753 3.98059 16.9948 3.98059C19.0178 3.98059 20.6578 5.62057 20.6578 7.6436C20.6578 9.13852 19.7623 10.4243 18.4784 10.9937C20.1986 11.4526 21.6003 12.69 22.2843 14.3037C22.6252 15.1078 22.4149 15.897 21.9291 16.4476C21.4608 16.9785 20.7418 17.2938 19.9878 17.2938Z" fill="#131F60"/>
</svg>
