<svg width="24" height="24" viewBox="0 0 24 24" fill="none" xmlns="http://www.w3.org/2000/svg">
<path fill-rule="evenodd" clip-rule="evenodd" d="M12 19.5C16.1421 19.5 19.5 16.1421 19.5 12C19.5 7.85786 16.1421 4.5 12 4.5C7.85786 4.5 4.5 7.85786 4.5 12C4.5 16.1421 7.85786 19.5 12 19.5ZM12 21C16.9706 21 21 16.9706 21 12C21 7.02944 16.9706 3 12 3C7.02944 3 3 7.02944 3 12C3 16.9706 7.02944 21 12 21Z" fill="#131F60"/>
<path fill-rule="evenodd" clip-rule="evenodd" d="M15.9895 8.93175C16.3033 9.20207 16.3386 9.67563 16.0683 9.98948L11.8534 14.883C11.3547 15.4619 10.4578 15.4619 9.95915 14.883L7.93175 12.5292C7.66142 12.2153 7.69671 11.7418 8.01055 11.4714C8.32439 11.2011 8.79796 11.2364 9.06828 11.5502L10.9063 13.6841L14.9317 9.01055C15.2021 8.69671 15.6756 8.66142 15.9895 8.93175Z" fill="#131F60"/>
</svg>
