<svg width="24" height="24" viewBox="0 0 24 24" fill="none" xmlns="http://www.w3.org/2000/svg">
<path fill-rule="evenodd" clip-rule="evenodd" d="M18 6.6427H6C5.72386 6.6427 5.5 6.86656 5.5 7.1427V18.0001C5.5 18.2762 5.72386 18.5001 6 18.5001H18C18.2761 18.5001 18.5 18.2762 18.5 18.0001V7.1427C18.5 6.86656 18.2761 6.6427 18 6.6427ZM6 5.1427C4.89543 5.1427 4 6.03813 4 7.1427V18.0001C4 19.1047 4.89543 20.0001 6 20.0001H18C19.1046 20.0001 20 19.1047 20 18.0001V7.1427C20 6.03813 19.1046 5.1427 18 5.1427H6Z" fill="#131F60"/>
<path fill-rule="evenodd" clip-rule="evenodd" d="M4.39307 10.1074H19.6074V11.6074H4.39307V10.1074Z" fill="#131F60"/>
<path fill-rule="evenodd" clip-rule="evenodd" d="M14.8568 3.25012C15.271 3.25012 15.6068 3.58591 15.6068 4.00012L15.6068 7.42875C15.6068 7.84297 15.271 8.17875 14.8568 8.17875C14.4426 8.17875 14.1068 7.84297 14.1068 7.42875L14.1068 4.00012C14.1068 3.58591 14.4426 3.25012 14.8568 3.25012Z" fill="#131F60"/>
<path fill-rule="evenodd" clip-rule="evenodd" d="M9.14307 3.25012C9.55728 3.25012 9.89307 3.58591 9.89307 4.00012L9.89307 7.42875C9.89307 7.84297 9.55728 8.17875 9.14307 8.17875C8.72885 8.17875 8.39307 7.84297 8.39307 7.42875L8.39307 4.00012C8.39307 3.58591 8.72885 3.25012 9.14307 3.25012Z" fill="#131F60"/>
</svg>
