<svg width="24" height="24" viewBox="0 0 24 24" fill="none" xmlns="http://www.w3.org/2000/svg">
<path fill-rule="evenodd" clip-rule="evenodd" d="M14.6636 10.4697C14.9565 10.7626 14.9565 11.2374 14.6636 11.5303L6.66363 19.5303C6.37074 19.8232 5.89586 19.8232 5.60297 19.5303C5.31008 19.2374 5.31008 18.7626 5.60297 18.4697L13.603 10.4697C13.8959 10.1768 14.3707 10.1768 14.6636 10.4697Z" fill="#131F60"/>
<path fill-rule="evenodd" clip-rule="evenodd" d="M16.8001 5.75C15.447 5.75 14.3501 6.8469 14.3501 8.2C14.3501 9.5531 15.447 10.65 16.8001 10.65C18.1532 10.65 19.2501 9.5531 19.2501 8.2C19.2501 7.78579 19.5859 7.45 20.0001 7.45C20.4143 7.45 20.7501 7.78579 20.7501 8.2C20.7501 10.3815 18.9816 12.15 16.8001 12.15C14.6186 12.15 12.8501 10.3815 12.8501 8.2C12.8501 6.01848 14.6186 4.25 16.8001 4.25C17.2143 4.25 17.5501 4.58579 17.5501 5C17.5501 5.41421 17.2143 5.75 16.8001 5.75Z" fill="#131F60"/>
<path fill-rule="evenodd" clip-rule="evenodd" d="M6.1363 7.46967C6.42919 7.17678 6.90406 7.17678 7.19696 7.46967L17.8636 18.1363C18.1565 18.4292 18.1565 18.9041 17.8636 19.197C17.5707 19.4899 17.0959 19.4899 16.803 19.197L6.1363 8.53033C5.8434 8.23744 5.8434 7.76256 6.1363 7.46967Z" fill="#131F60"/>
<path fill-rule="evenodd" clip-rule="evenodd" d="M9.33033 4.53632C9.62322 4.82921 9.62322 5.30409 9.33033 5.59698L4.53033 10.397C4.23744 10.6899 3.76256 10.6899 3.46967 10.397C3.17678 10.1041 3.17678 9.62921 3.46967 9.33632L8.26967 4.53632C8.56256 4.24343 9.03744 4.24343 9.33033 4.53632Z" fill="#131F60"/>
</svg>
