<svg width="24" height="24" viewBox="0 0 24 24" fill="none" xmlns="http://www.w3.org/2000/svg">
<path fill-rule="evenodd" clip-rule="evenodd" d="M16.402 7.01855C13.0866 4.79986 8.81956 5.538 6.83506 8.50343C5.6633 10.2544 5.51107 12.4292 6.26388 14.3867C6.41255 14.7733 6.21967 15.2073 5.83305 15.356C5.44644 15.5046 5.01251 15.3117 4.86383 14.9251C3.95413 12.5596 4.11839 9.8659 5.58845 7.66918C8.09162 3.92869 13.3223 3.15267 17.2362 5.77193C17.5805 6.0023 17.6728 6.46812 17.4424 6.81236C17.2121 7.1566 16.7462 7.24892 16.402 7.01855Z" fill="#131F60"/>
<path fill-rule="evenodd" clip-rule="evenodd" d="M16.6194 6.08036L14.4198 6.67153C14.0198 6.77904 13.7827 7.19047 13.8902 7.59049C13.9977 7.99051 14.4091 8.22763 14.8091 8.12013L17.3087 7.44834C18.0793 7.24125 18.4612 6.37498 18.0943 5.66641L16.9041 3.36799C16.7137 3.00017 16.2611 2.85638 15.8933 3.04684C15.5254 3.2373 15.3817 3.68989 15.5721 4.05772L16.6194 6.08036Z" fill="#131F60"/>
<path fill-rule="evenodd" clip-rule="evenodd" d="M7.66095 18.1538L9.8606 17.5627C10.2606 17.4552 10.4977 17.0437 10.3902 16.6437C10.2827 16.2437 9.87129 16.0066 9.47128 16.1141L6.97171 16.7858C6.20113 16.9929 5.81923 17.8592 6.18612 18.5678L7.37625 20.8662C7.56671 21.234 8.01929 21.3778 8.38712 21.1873C8.75495 20.9969 8.89873 20.5443 8.70827 20.1765L7.66095 18.1538Z" fill="#131F60"/>
<path fill-rule="evenodd" clip-rule="evenodd" d="M18.0779 8.82349C18.4645 8.67481 18.8984 8.8677 19.0471 9.25431C19.9568 11.6199 19.7926 14.3135 18.3225 16.5103C15.8193 20.2507 10.5887 21.0268 6.6747 18.4075C6.33046 18.1771 6.23815 17.7113 6.46852 17.3671C6.69889 17.0228 7.1647 16.9305 7.50895 17.1609C10.8243 19.3796 15.0914 18.6414 17.0759 15.676C18.2477 13.925 18.3999 11.7503 17.6471 9.79271C17.4984 9.4061 17.6913 8.97216 18.0779 8.82349Z" fill="#131F60"/>
</svg>
