<svg width="24" height="24" viewBox="0 0 24 24" fill="none" xmlns="http://www.w3.org/2000/svg">
<path fill-rule="evenodd" clip-rule="evenodd" d="M19.0435 6H4.95652C4.1401 6 3.47826 6.67157 3.47826 7.5V16.5C3.47826 17.3284 4.1401 18 4.95652 18H19.0435C19.8599 18 20.5217 17.3284 20.5217 16.5V7.5C20.5217 6.67157 19.8599 6 19.0435 6ZM4.95652 4.5C3.32368 4.5 2 5.84315 2 7.5V16.5C2 18.1569 3.32368 19.5 4.95652 19.5H19.0435C20.6763 19.5 22 18.1569 22 16.5V7.5C22 5.84315 20.6763 4.5 19.0435 4.5H4.95652Z" fill="#131F60"/>
<path fill-rule="evenodd" clip-rule="evenodd" d="M7.3479 15.5294C7.3479 15.1152 7.67882 14.7794 8.08703 14.7794H15.9131C16.3213 14.7794 16.6522 15.1152 16.6522 15.5294C16.6522 15.9436 16.3213 16.2794 15.9131 16.2794H8.08703C7.67882 16.2794 7.3479 15.9436 7.3479 15.5294Z" fill="#131F60"/>
</svg>
