<svg width="24" height="24" viewBox="0 0 24 24" fill="none" xmlns="http://www.w3.org/2000/svg">
<path fill-rule="evenodd" clip-rule="evenodd" d="M16.8889 6.57129H7.11111C6.22132 6.57129 5.5 7.29261 5.5 8.1824C5.5 9.07219 6.22132 9.79351 7.11111 9.79351H16.8889C17.7787 9.79351 18.5 9.07219 18.5 8.1824C18.5 7.29261 17.7787 6.57129 16.8889 6.57129ZM7.11111 5.07129C5.39289 5.07129 4 6.46418 4 8.1824C4 9.90062 5.39289 11.2935 7.11111 11.2935H16.8889C18.6071 11.2935 20 9.90062 20 8.1824C20 6.46418 18.6071 5.07129 16.8889 5.07129H7.11111Z" fill="#131F60"/>
<path fill-rule="evenodd" clip-rule="evenodd" d="M12.4444 14.5713H7.11111C6.22132 14.5713 5.5 15.2926 5.5 16.1824C5.5 17.0722 6.22132 17.7935 7.11111 17.7935H12.4444C13.3342 17.7935 14.0555 17.0722 14.0555 16.1824C14.0555 15.2926 13.3342 14.5713 12.4444 14.5713ZM7.11111 13.0713C5.39289 13.0713 4 14.4642 4 16.1824C4 17.9006 5.39289 19.2935 7.11111 19.2935H12.4444C14.1627 19.2935 15.5555 17.9006 15.5555 16.1824C15.5555 14.4642 14.1627 13.0713 12.4444 13.0713H7.11111Z" fill="#131F60"/>
</svg>
