<svg width="24" height="24" viewBox="0 0 24 24" fill="none" xmlns="http://www.w3.org/2000/svg">
<path fill-rule="evenodd" clip-rule="evenodd" d="M11.7348 4.43855C12.0798 4.26604 12.4851 4.26248 12.8331 4.42891L21.3805 8.51678C22.328 8.96997 22.328 10.3189 21.3805 10.7721L12.8256 14.8636C12.4883 15.0249 12.0965 15.0267 11.7577 14.8686L5.63839 12.013C5.26304 11.8378 5.10075 11.3915 5.27592 11.0162C5.45108 10.6408 5.89737 10.4785 6.27272 10.6537L12.285 13.4594L20.2617 9.64445L12.2962 5.83487L3.75 10.108V15.1333C3.75 15.5476 3.41421 15.8833 3 15.8833C2.58579 15.8833 2.25 15.5476 2.25 15.1333V9.95346C2.25 9.48 2.5175 9.04717 2.94098 8.83543L11.7348 4.43855Z" fill="#131F60"/>
<path fill-rule="evenodd" clip-rule="evenodd" d="M7.55005 11.7549V15.3994C7.55005 15.8701 7.89403 16.446 8.77753 16.9468C9.63865 17.4349 10.8786 17.7605 12.2889 17.7605C13.6993 17.7605 14.9392 17.4349 15.8003 16.9468C16.6838 16.446 17.0278 15.8701 17.0278 15.3994V11.7549H18.5278V15.3994C18.5278 16.6469 17.6431 17.6265 16.54 18.2518C15.4145 18.8897 13.91 19.2605 12.2889 19.2605C10.6679 19.2605 9.16335 18.8897 8.03788 18.2518C6.93479 17.6265 6.05005 16.6469 6.05005 15.3994V11.7549H7.55005Z" fill="#131F60"/>
</svg>
