<svg width="24" height="24" viewBox="0 0 24 24" fill="none" xmlns="http://www.w3.org/2000/svg">
<path fill-rule="evenodd" clip-rule="evenodd" d="M4.25 5.5C4.25 4.5335 5.0335 3.75 6 3.75H14.0069C14.9734 3.75 15.7569 4.5335 15.7569 5.5V7.77149H14.2569V5.5C14.2569 5.36193 14.145 5.25 14.0069 5.25H6C5.86193 5.25 5.75 5.36193 5.75 5.5V15.0464C5.75 15.1845 5.86193 15.2964 6 15.2964H8.68043V16.7964H6C5.0335 16.7964 4.25 16.0129 4.25 15.0464V5.5Z" fill="#131F60"/>
<path fill-rule="evenodd" clip-rule="evenodd" d="M8.24292 9.49286C8.24292 8.52636 9.02642 7.74286 9.99292 7.74286H17.9998C18.9663 7.74286 19.7498 8.52636 19.7498 9.49286V19.0393C19.7498 20.0058 18.9663 20.7893 17.9998 20.7893H9.99292C9.02642 20.7893 8.24292 20.0058 8.24292 19.0393V9.49286ZM9.99292 9.24286C9.85485 9.24286 9.74292 9.35479 9.74292 9.49286V19.0393C9.74292 19.1774 9.85485 19.2893 9.99292 19.2893H17.9998C18.1379 19.2893 18.2498 19.1774 18.2498 19.0393V9.49286C18.2498 9.35479 18.1379 9.24286 17.9998 9.24286H9.99292Z" fill="#131F60"/>
</svg>
