<svg width="24" height="24" viewBox="0 0 24 24" fill="none" xmlns="http://www.w3.org/2000/svg">
<path fill-rule="evenodd" clip-rule="evenodd" d="M12 19.5C16.1421 19.5 19.5 16.1421 19.5 12C19.5 7.85786 16.1421 4.5 12 4.5C7.85786 4.5 4.5 7.85786 4.5 12C4.5 16.1421 7.85786 19.5 12 19.5ZM12 21C16.9706 21 21 16.9706 21 12C21 7.02944 16.9706 3 12 3C7.02944 3 3 7.02944 3 12C3 16.9706 7.02944 21 12 21Z" fill="#131F60"/>
<path fill-rule="evenodd" clip-rule="evenodd" d="M12 7.64996C12.4142 7.64996 12.75 7.98575 12.75 8.39996V12.15H15.6C16.0142 12.15 16.35 12.4857 16.35 12.9C16.35 13.3142 16.0142 13.65 15.6 13.65H12C11.5858 13.65 11.25 13.3142 11.25 12.9V8.39996C11.25 7.98575 11.5858 7.64996 12 7.64996Z" fill="#131F60"/>
</svg>
