<svg width="24" height="24" viewBox="0 0 24 24" fill="none" xmlns="http://www.w3.org/2000/svg">
<path fill-rule="evenodd" clip-rule="evenodd" d="M6 9.95093C6.55228 9.95093 7 10.3986 7 10.9509V17.9995C7 18.5518 6.55228 18.9995 6 18.9995C5.44772 18.9995 5 18.5518 5 17.9995V10.9509C5 10.3986 5.44772 9.95093 6 9.95093Z" fill="#131F60"/>
<path fill-rule="evenodd" clip-rule="evenodd" d="M12 5C12.5523 5 13 5.44772 13 6L13 17.9994C13 18.5517 12.5523 18.9994 12 18.9994C11.4477 18.9994 11 18.5517 11 17.9994L11 6C11 5.44772 11.4477 5 12 5Z" fill="#131F60"/>
<path fill-rule="evenodd" clip-rule="evenodd" d="M18 12.9723C18.5523 12.9723 19 13.42 19 13.9723L19 18.0001C19 18.5523 18.5523 19.0001 18 19.0001C17.4477 19.0001 17 18.5523 17 18.0001L17 13.9723C17 13.42 17.4477 12.9723 18 12.9723Z" fill="#131F60"/>
</svg>
