<svg width="24" height="24" viewBox="0 0 24 24" fill="none" xmlns="http://www.w3.org/2000/svg">
<path fill-rule="evenodd" clip-rule="evenodd" d="M12 19.5C16.1421 19.5 19.5 16.1421 19.5 12C19.5 7.85786 16.1421 4.5 12 4.5C7.85786 4.5 4.5 7.85786 4.5 12C4.5 16.1421 7.85786 19.5 12 19.5ZM12 21C16.9706 21 21 16.9706 21 12C21 7.02944 16.9706 3 12 3C7.02944 3 3 7.02944 3 12C3 16.9706 7.02944 21 12 21Z" fill="#131F60"/>
<path d="M11.5097 12.5485L10.6183 8.09164C10.5564 7.78224 10.793 7.49358 11.1086 7.49358H12.8913C13.2068 7.49358 13.4435 7.78224 13.3816 8.09164L12.4902 12.5485C12.383 13.0844 11.6168 13.0844 11.5097 12.5485Z" fill="#131F60"/>
<path d="M13.1263 15.6323C13.1263 16.2542 12.6222 16.7583 12.0003 16.7583C11.3785 16.7583 10.8744 16.2542 10.8744 15.6323C10.8744 15.0105 11.3785 14.5063 12.0003 14.5063C12.6222 14.5063 13.1263 15.0105 13.1263 15.6323Z" fill="#131F60"/>
</svg>
