<svg width="24" height="24" viewBox="0 0 24 24" fill="none" xmlns="http://www.w3.org/2000/svg">
<path fill-rule="evenodd" clip-rule="evenodd" d="M12 19.5C16.1421 19.5 19.5 16.1421 19.5 12C19.5 7.85786 16.1421 4.5 12 4.5C7.85786 4.5 4.5 7.85786 4.5 12C4.5 16.1421 7.85786 19.5 12 19.5ZM12 21C16.9706 21 21 16.9706 21 12C21 7.02944 16.9706 3 12 3C7.02944 3 3 7.02944 3 12C3 16.9706 7.02944 21 12 21Z" fill="#131F60"/>
<path d="M11.6284 14.5315L8.75104 11.3345C8.46145 11.0127 8.6898 10.5 9.12269 10.5H14.8773C15.3102 10.5 15.5386 11.0127 15.249 11.3345L12.3717 14.5315C12.173 14.7522 11.827 14.7522 11.6284 14.5315Z" fill="#131F60"/>
</svg>
