<svg width="24" height="24" viewBox="0 0 24 24" fill="none" xmlns="http://www.w3.org/2000/svg">
<path fill-rule="evenodd" clip-rule="evenodd" d="M6.80556 4.25C5.39416 4.25 4.25 5.39416 4.25 6.80556C4.25 8.21695 5.39416 9.36111 6.80556 9.36111C8.21695 9.36111 9.36111 8.21695 9.36111 6.80556C9.36111 5.39416 8.21695 4.25 6.80556 4.25ZM2.75 6.80556C2.75 4.56573 4.56573 2.75 6.80556 2.75C9.04538 2.75 10.8611 4.56573 10.8611 6.80556C10.8611 9.04538 9.04538 10.8611 6.80556 10.8611C4.56573 10.8611 2.75 9.04538 2.75 6.80556Z" fill="#131F60"/>
<path fill-rule="evenodd" clip-rule="evenodd" d="M17.1945 4.25C15.7831 4.25 14.6389 5.39416 14.6389 6.80556C14.6389 8.21695 15.7831 9.36111 17.1945 9.36111C18.6059 9.36111 19.75 8.21695 19.75 6.80556C19.75 5.39416 18.6059 4.25 17.1945 4.25ZM13.1389 6.80556C13.1389 4.56573 14.9546 2.75 17.1945 2.75C19.4343 2.75 21.25 4.56573 21.25 6.80556C21.25 9.04538 19.4343 10.8611 17.1945 10.8611C14.9546 10.8611 13.1389 9.04538 13.1389 6.80556Z" fill="#131F60"/>
<path fill-rule="evenodd" clip-rule="evenodd" d="M6.80556 14.6389C5.39416 14.6389 4.25 15.7831 4.25 17.1945C4.25 18.6059 5.39416 19.75 6.80556 19.75C8.21695 19.75 9.36111 18.6059 9.36111 17.1945C9.36111 15.7831 8.21695 14.6389 6.80556 14.6389ZM2.75 17.1945C2.75 14.9546 4.56573 13.1389 6.80556 13.1389C9.04538 13.1389 10.8611 14.9546 10.8611 17.1945C10.8611 19.4343 9.04538 21.25 6.80556 21.25C4.56573 21.25 2.75 19.4343 2.75 17.1945Z" fill="#131F60"/>
<path fill-rule="evenodd" clip-rule="evenodd" d="M13.1389 17.1945C13.1389 14.9546 14.9546 13.1389 17.1945 13.1389C19.4343 13.1389 21.25 14.9546 21.25 17.1945C21.25 19.4343 19.4343 21.25 17.1945 21.25C14.9546 21.25 13.1389 19.4343 13.1389 17.1945ZM17.1945 14.6389C15.7831 14.6389 14.6389 15.7831 14.6389 17.1945C14.6389 18.6059 15.7831 19.75 17.1945 19.75C18.6059 19.75 19.75 18.6059 19.75 17.1945C19.75 15.7831 18.6059 14.6389 17.1945 14.6389Z" fill="#131F60"/>
</svg>
