<svg width="24" height="24" viewBox="0 0 24 24" fill="none" xmlns="http://www.w3.org/2000/svg">
<path fill-rule="evenodd" clip-rule="evenodd" d="M5.76711 11.1036C6.04746 10.7987 6.52192 10.7788 6.82684 11.0591L12.0815 15.8904L17.3362 11.0591C17.6411 10.7788 18.1156 10.7987 18.3959 11.1036C18.6763 11.4085 18.6564 11.883 18.3514 12.1633L12.0815 17.928L5.8116 12.1633C5.50668 11.883 5.48676 11.4085 5.76711 11.1036Z" fill="#131F60"/>
<path fill-rule="evenodd" clip-rule="evenodd" d="M12.0775 3.25C12.4917 3.25 12.8275 3.58579 12.8275 4L12.8275 16.8C12.8275 17.2142 12.4917 17.55 12.0775 17.55C11.6633 17.55 11.3275 17.2142 11.3275 16.8L11.3275 4C11.3275 3.58579 11.6633 3.25 12.0775 3.25Z" fill="#131F60"/>
<path fill-rule="evenodd" clip-rule="evenodd" d="M4.13086 20C4.13086 19.5858 4.46665 19.25 4.88086 19.25H18.9985C19.4127 19.25 19.7485 19.5858 19.7485 20C19.7485 20.4142 19.4127 20.75 18.9985 20.75H4.88086C4.46665 20.75 4.13086 20.4142 4.13086 20Z" fill="#131F60"/>
</svg>
