<svg width="24" height="24" viewBox="0 0 24 24" fill="none" xmlns="http://www.w3.org/2000/svg">
<path fill-rule="evenodd" clip-rule="evenodd" d="M4.25 18.75C4.25 19.7165 5.0335 20.5 6 20.5H14.0069C14.9734 20.5 15.7569 19.7165 15.7569 18.75V16.4784H14.2569V18.75C14.2569 18.8881 14.145 19 14.0069 19H6C5.86193 19 5.75 18.8881 5.75 18.75V9.20321C5.75 9.06514 5.86193 8.95321 6 8.95321H8.68043V7.45321H6C5.0335 7.45321 4.25 8.23672 4.25 9.20321V18.75Z" fill="#131F60"/>
<path fill-rule="evenodd" clip-rule="evenodd" d="M8.24292 14.95C8.24292 15.9164 9.02642 16.7 9.99292 16.7H17.9998C18.9663 16.7 19.7498 15.9165 19.7498 14.95V5.40316C19.7498 4.43667 18.9663 3.65316 17.9998 3.65316H9.99292C9.02642 3.65316 8.24292 4.43667 8.24292 5.40316V14.95ZM9.99292 15.2C9.85485 15.2 9.74292 15.088 9.74292 14.95V5.40316C9.74292 5.26509 9.85485 5.15316 9.99292 5.15316H17.9998C18.1379 5.15316 18.2498 5.26509 18.2498 5.40316V14.95C18.2498 15.088 18.1379 15.2 17.9998 15.2H9.99292Z" fill="#131F60"/>
</svg>
