<svg width="24" height="24" viewBox="0 0 24 24" fill="none" xmlns="http://www.w3.org/2000/svg">
<path fill-rule="evenodd" clip-rule="evenodd" d="M20.0013 18.341C20.3311 18.0904 20.3953 17.6199 20.1447 17.2901L14.035 9.24856C13.6046 8.68205 12.7888 8.58853 12.2413 9.04294L8.3859 12.2431L3.54652 5.7996C3.29777 5.46839 2.82762 5.40155 2.49642 5.6503C2.16522 5.89905 2.09837 6.36919 2.34712 6.7004L7.34412 13.3538C7.77303 13.9249 8.59242 14.0211 9.14198 13.5649L12.9985 10.3638L18.9504 18.1975C19.2009 18.5273 19.6715 18.5916 20.0013 18.341Z" fill="#131F60"/>
<path fill-rule="evenodd" clip-rule="evenodd" d="M19.3743 17.2616L19.7741 12.6919C19.8102 12.2792 20.1739 11.9739 20.5866 12.01C20.9992 12.0461 21.3044 12.4099 21.2683 12.8226L20.8468 17.6414C20.7866 18.3291 20.1803 18.8379 19.4926 18.7777L14.6742 18.3561C14.2616 18.32 13.9564 17.9562 13.9925 17.5436C14.0286 17.1309 14.3924 16.8257 14.805 16.8618L19.3743 17.2616Z" fill="#131F60"/>
</svg>
