<svg width="24" height="24" viewBox="0 0 24 24" fill="none" xmlns="http://www.w3.org/2000/svg">
<path d="M15.533 3.24118C15.7105 3.02964 16.0259 3.00205 16.2374 3.17955L19.5328 5.94472C19.7443 6.12222 19.7719 6.4376 19.5944 6.64914L17.9859 8.56606C17.8084 8.7776 17.4931 8.80519 17.2815 8.62769L13.9861 5.86251C13.7746 5.68501 13.747 5.36963 13.9245 5.1581L15.533 3.24118Z" fill="#131F60"/>
<path d="M11.9995 7.45224C12.177 7.2407 12.4924 7.21311 12.7039 7.39061L15.9994 10.1558C16.2109 10.3333 16.2385 10.6487 16.061 10.8602L9.27188 18.9511C9.20345 19.0327 9.11078 19.0903 9.00736 19.1155L5.68632 19.9257C5.36946 20.003 5.06461 19.7611 5.06784 19.435L5.10333 15.8479C5.10447 15.732 5.14581 15.6202 5.22028 15.5314L11.9995 7.45224Z" fill="#131F60"/>
</svg>
