<svg width="24" height="24" viewBox="0 0 24 24" fill="none" xmlns="http://www.w3.org/2000/svg">
<path fill-rule="evenodd" clip-rule="evenodd" d="M18.5 18V6C18.5 5.17157 17.8284 4.5 17 4.5H10.8914C10.4502 4.5 10.0313 4.69426 9.74632 5.03109L5.85492 9.63001C5.62575 9.90085 5.5 10.2441 5.5 10.5989V18C5.5 18.8284 6.17157 19.5 7 19.5H17C17.8284 19.5 18.5 18.8284 18.5 18ZM4.70984 8.6611C4.25151 9.20277 4 9.88936 4 10.5989V18C4 19.6569 5.34315 21 7 21H17C18.6569 21 20 19.6569 20 18V6C20 4.34315 18.6569 3 17 3H10.8914C10.0089 3 9.17125 3.38852 8.60124 4.06217L4.70984 8.6611Z" fill="#131F60"/>
<path fill-rule="evenodd" clip-rule="evenodd" d="M10.25 9V3H11.75V9C11.75 10.5188 10.5188 11.75 9 11.75H4V10.25H9C9.69036 10.25 10.25 9.69036 10.25 9Z" fill="#131F60"/>
</svg>
