<svg width="24" height="24" viewBox="0 0 24 24" fill="none" xmlns="http://www.w3.org/2000/svg">
<path fill-rule="evenodd" clip-rule="evenodd" d="M4.91657 6.25L12.2998 14.9782L19.683 6.25H4.91657ZM3.4233 6.80729C2.73606 5.99486 3.31353 4.75 4.37765 4.75H20.2219C21.2861 4.75 21.8635 5.99486 21.1763 6.80729L13.2541 16.1726C12.7548 16.7628 11.8448 16.7628 11.3454 16.1726L3.4233 6.80729Z" fill="#131F60"/>
<path fill-rule="evenodd" clip-rule="evenodd" d="M12.3474 15.01C12.7616 15.01 13.0974 15.3458 13.0974 15.76V19C13.0974 19.4142 12.7616 19.75 12.3474 19.75C11.9332 19.75 11.5974 19.4142 11.5974 19V15.76C11.5974 15.3458 11.9332 15.01 12.3474 15.01Z" fill="#131F60"/>
<path fill-rule="evenodd" clip-rule="evenodd" d="M7.97852 11.4399C7.97852 11.0257 8.3143 10.6899 8.72852 10.6899L15.8714 10.6899C16.2856 10.6899 16.6214 11.0257 16.6214 11.4399C16.6214 11.8542 16.2856 12.1899 15.8714 12.1899L8.72852 12.1899C8.3143 12.1899 7.97852 11.8542 7.97852 11.4399Z" fill="#131F60"/>
</svg>
