<svg width="24" height="24" viewBox="0 0 24 24" fill="none" xmlns="http://www.w3.org/2000/svg">
<path d="M20 4.5L4.5 20" stroke="#131F60" stroke-width="1.5" stroke-linecap="round" stroke-linejoin="round"/>
<path fill-rule="evenodd" clip-rule="evenodd" d="M6.6415 16.8585C8.23303 17.727 10.0585 18.2205 11.9993 18.2205C16.0063 18.2205 19.522 16.1165 21.5017 12.9529C21.8393 12.4133 21.8393 11.7295 21.5017 11.19C20.3311 9.31931 18.6234 7.81912 16.5947 6.90535L14.6747 8.82526C15.634 9.60665 16.2467 10.7972 16.2467 12.1309C16.2467 14.4845 14.3388 16.3924 11.9853 16.3924C10.6516 16.3924 9.46097 15.7797 8.67958 14.8204L6.6415 16.8585ZM7.76616 12.7338L4.85399 15.646C3.93212 14.8816 3.13478 13.9723 2.4969 12.9529C2.15924 12.4133 2.15924 11.7295 2.4969 11.19C4.47658 8.02641 7.99222 5.92236 11.9993 5.92236C12.7999 5.92236 13.5809 6.00636 14.334 6.16602L12.5882 7.91184C12.3912 7.88395 12.1899 7.86952 11.9853 7.86952C9.63174 7.86952 7.72384 9.77742 7.72384 12.1309C7.72384 12.3356 7.73827 12.5369 7.76616 12.7338ZM10.1571 13.3429C10.5496 13.934 11.2213 14.3236 11.9841 14.3236C13.1944 14.3236 14.1757 13.3424 14.1757 12.132C14.1757 11.3693 13.786 10.6976 13.195 10.305L10.1571 13.3429Z" fill="#131F60"/>
</svg>
