<svg width="24" height="24" viewBox="0 0 24 24" fill="none" xmlns="http://www.w3.org/2000/svg">
<path d="M19.8301 14.5602H16.3045L17.3942 9.44939H19.8336C20.4663 9.43885 20.969 8.91511 20.9584 8.28592C20.9479 7.67079 20.4488 7.17165 19.8336 7.16111H17.8828L18.4733 4.39127C18.6034 3.77262 18.2097 3.16452 17.591 3.03447C16.9689 2.9009 16.3608 3.29458 16.2307 3.91322L15.5383 7.16111H10.4801L11.0707 4.39127C11.2078 3.77262 10.8176 3.16452 10.2025 3.02744C9.58733 2.89035 8.97571 3.28052 8.83863 3.89565C8.83863 3.90268 8.83511 3.90971 8.83511 3.91674L8.14265 7.16462H4.12497C3.49227 7.17517 2.98962 7.69891 3.00016 8.3281C3.01071 8.94323 3.50984 9.44236 4.12497 9.45291H7.65406L6.5644 14.5602H4.12497C3.49227 14.5708 2.98962 15.0945 3.00016 15.7237C3.01071 16.3388 3.50984 16.838 4.12497 16.8485H6.07581L5.48529 19.6184C5.35523 20.237 5.74892 20.8451 6.36756 20.9752C6.98621 21.1052 7.59431 20.7115 7.72436 20.0929L8.41682 16.845H13.4785L12.8879 19.6149C12.7579 20.2335 13.1516 20.8416 13.7702 20.9717C14.3889 21.1017 14.997 20.708 15.127 20.0894L15.8195 16.8415H19.8336C20.4663 16.831 20.969 16.3072 20.9584 15.678C20.9444 15.0699 20.4488 14.5708 19.8301 14.5602ZM8.9019 14.5602L9.99156 9.44939H15.0532L13.9635 14.5602H8.9019Z" fill="#131F60"/>
</svg>
