<svg width="24" height="24" viewBox="0 0 24 24" fill="none" xmlns="http://www.w3.org/2000/svg">
<path fill-rule="evenodd" clip-rule="evenodd" d="M17 5.40332H7C6.17157 5.40332 5.5 6.07489 5.5 6.90332V16.9033C5.5 17.7317 6.17157 18.4033 7 18.4033H17C17.8284 18.4033 18.5 17.7317 18.5 16.9033V6.90332C18.5 6.07489 17.8284 5.40332 17 5.40332ZM7 3.90332C5.34315 3.90332 4 5.24647 4 6.90332V16.9033C4 18.5602 5.34315 19.9033 7 19.9033H17C18.6569 19.9033 20 18.5602 20 16.9033V6.90332C20 5.24647 18.6569 3.90332 17 3.90332H7Z" fill="#131F60"/>
<path fill-rule="evenodd" clip-rule="evenodd" d="M9.76004 11.2503C9.96611 11.256 10.1607 11.3463 10.2982 11.5L16.559 18.5C16.8352 18.8087 16.8088 19.2829 16.5 19.559C16.1913 19.8352 15.7171 19.8087 15.441 19.5L9.70877 13.091L5.76946 17.0303C5.47657 17.3232 5.0017 17.3232 4.7088 17.0303C4.41591 16.7374 4.41591 16.2626 4.70881 15.9697L9.20883 11.4697C9.3546 11.3239 9.55396 11.2446 9.76004 11.2503Z" fill="#131F60"/>
<path d="M16 9.5C16 10.3284 15.3284 11 14.5 11C13.6716 11 13 10.3284 13 9.5C13 8.67157 13.6716 8 14.5 8C15.3284 8 16 8.67157 16 9.5Z" fill="#131F60"/>
<path fill-rule="evenodd" clip-rule="evenodd" d="M14.5 11C15.3284 11 16 10.3284 16 9.5C16 8.67157 15.3284 8 14.5 8C13.6716 8 13 8.67157 13 9.5C13 10.3284 13.6716 11 14.5 11Z" fill="#131F60"/>
</svg>
