<svg width="24" height="24" viewBox="0 0 24 24" fill="none" xmlns="http://www.w3.org/2000/svg">
<path fill-rule="evenodd" clip-rule="evenodd" d="M20.0012 6.65879C20.331 6.90939 20.3952 7.37991 20.1446 7.70971L14.0348 15.7505C13.6044 16.317 12.7887 16.4105 12.2412 15.9562L8.38577 12.7562L3.54638 19.1992C3.29762 19.5304 2.82747 19.5972 2.49627 19.3485C2.16508 19.0997 2.09826 18.6295 2.34702 18.2983L7.34403 11.6455C7.77293 11.0745 8.59226 10.9783 9.14181 11.4344L12.9984 14.6352L18.9503 6.80221C19.2009 6.4724 19.6714 6.40819 20.0012 6.65879Z" fill="#131F60"/>
<path fill-rule="evenodd" clip-rule="evenodd" d="M19.3742 7.7382L19.7739 12.3075C19.81 12.7202 20.1738 13.0254 20.5864 12.9893C20.9991 12.9532 21.3043 12.5894 21.2682 12.1768L20.8467 7.35842C20.7865 6.67069 20.1802 6.16195 19.4925 6.22212L14.6741 6.64367C14.2615 6.67977 13.9562 7.04355 13.9923 7.45618C14.0284 7.86882 14.3922 8.17406 14.8048 8.13796L19.3742 7.7382Z" fill="#131F60"/>
</svg>
