<svg width="24" height="24" viewBox="0 0 24 24" fill="none" xmlns="http://www.w3.org/2000/svg">
<path fill-rule="evenodd" clip-rule="evenodd" d="M20.25 18C20.25 19.5188 19.0188 20.75 17.5 20.75H7.5C5.98122 20.75 4.75 19.5188 4.75 18V16.8C4.75 16.3858 5.08579 16.05 5.5 16.05C5.91421 16.05 6.25 16.3858 6.25 16.8V18C6.25 18.6904 6.80964 19.25 7.5 19.25H17.5C18.1904 19.25 18.75 18.6904 18.75 18V6C18.75 5.30964 18.1904 4.75 17.5 4.75H7.5C6.80964 4.75 6.25 5.30964 6.25 6V7.2C6.25 7.61421 5.91421 7.95 5.5 7.95C5.08579 7.95 4.75 7.61421 4.75 7.2V6C4.75 4.48122 5.98122 3.25 7.5 3.25H17.5C19.0188 3.25 20.25 4.48122 20.25 6V18Z" fill="#131F60"/>
<path fill-rule="evenodd" clip-rule="evenodd" d="M10.1092 8.49828C10.3863 8.1904 10.8605 8.16544 11.1684 8.44254L14.5017 11.4425C14.6597 11.5848 14.7499 11.7874 14.7499 12C14.7499 12.2126 14.6597 12.4152 14.5017 12.5575L11.1684 15.5575C10.8605 15.8346 10.3863 15.8096 10.1092 15.5017C9.83209 15.1939 9.85705 14.7196 10.1649 14.4425L12.0455 12.75H3.5C3.08579 12.75 2.75 12.4142 2.75 12C2.75 11.5858 3.08579 11.25 3.5 11.25H12.0455L10.1649 9.55747C9.85705 9.28038 9.83209 8.80616 10.1092 8.49828Z" fill="#131F60"/>
</svg>
