<svg width="24" height="24" viewBox="0 0 24 24" fill="none" xmlns="http://www.w3.org/2000/svg">
<path fill-rule="evenodd" clip-rule="evenodd" d="M17 9.5H7C6.17157 9.5 5.5 10.1716 5.5 11V19C5.5 19.8284 6.17157 20.5 7 20.5H17C17.8284 20.5 18.5 19.8284 18.5 19V11C18.5 10.1716 17.8284 9.5 17 9.5ZM7 8C5.34315 8 4 9.34315 4 11V19C4 20.6569 5.34315 22 7 22H17C18.6569 22 20 20.6569 20 19V11C20 9.34315 18.6569 8 17 8H7Z" fill="#131F60"/>
<path fill-rule="evenodd" clip-rule="evenodd" d="M12 2.75C10.2051 2.75 8.75 4.20507 8.75 6V9H7.25V6C7.25 3.37665 9.37665 1.25 12 1.25C14.6234 1.25 16.75 3.37665 16.75 6V9H15.25V6C15.25 4.20507 13.7949 2.75 12 2.75Z" fill="#131F60"/>
<path fill-rule="evenodd" clip-rule="evenodd" d="M12.743 15.3574C13.4797 15.0625 14 14.342 14 13.5C14 12.3954 13.1046 11.5 12 11.5C10.8954 11.5 10 12.3954 10 13.5C10 14.342 10.5203 15.0625 11.257 15.3574L10.2743 17.8143C10.1429 18.1427 10.3848 18.5 10.7385 18.5H13.2615C13.6152 18.5 13.8571 18.1427 13.7257 17.8143L12.743 15.3574Z" fill="#131F60"/>
</svg>
