<svg width="24" height="24" viewBox="0 0 24 24" fill="none" xmlns="http://www.w3.org/2000/svg">
<path fill-rule="evenodd" clip-rule="evenodd" d="M10.35 6.29999C10.35 5.88577 10.6858 5.54999 11.1 5.54999H19.5C19.9142 5.54999 20.25 5.88577 20.25 6.29999C20.25 6.7142 19.9142 7.04999 19.5 7.04999H11.1C10.6858 7.04999 10.35 6.7142 10.35 6.29999Z" fill="#131F60"/>
<path d="M8.1 6.3C8.1 7.29411 7.29411 8.1 6.3 8.1C5.30589 8.1 4.5 7.29411 4.5 6.3C4.5 5.30589 5.30589 4.5 6.3 4.5C7.29411 4.5 8.1 5.30589 8.1 6.3Z" fill="#131F60"/>
<path fill-rule="evenodd" clip-rule="evenodd" d="M10.35 12.2172C10.35 11.803 10.6858 11.4672 11.1 11.4672H19.5C19.9142 11.4672 20.25 11.803 20.25 12.2172C20.25 12.6314 19.9142 12.9672 19.5 12.9672H11.1C10.6858 12.9672 10.35 12.6314 10.35 12.2172Z" fill="#131F60"/>
<path d="M8.1 12.2172C8.1 13.2113 7.29411 14.0172 6.3 14.0172C5.30589 14.0172 4.5 13.2113 4.5 12.2172C4.5 11.2231 5.30589 10.4172 6.3 10.4172C7.29411 10.4172 8.1 11.2231 8.1 12.2172Z" fill="#131F60"/>
<path fill-rule="evenodd" clip-rule="evenodd" d="M10.35 18.1345C10.35 17.7202 10.6858 17.3845 11.1 17.3845H19.5C19.9142 17.3845 20.25 17.7202 20.25 18.1345C20.25 18.5487 19.9142 18.8845 19.5 18.8845H11.1C10.6858 18.8845 10.35 18.5487 10.35 18.1345Z" fill="#131F60"/>
<path d="M8.1 18.1345C8.1 19.1286 7.29411 19.9345 6.3 19.9345C5.30589 19.9345 4.5 19.1286 4.5 18.1345C4.5 17.1404 5.30589 16.3345 6.3 16.3345C7.29411 16.3345 8.1 17.1404 8.1 18.1345Z" fill="#131F60"/>
</svg>
