<svg width="24" height="24" viewBox="0 0 24 24" fill="none" xmlns="http://www.w3.org/2000/svg">
<path fill-rule="evenodd" clip-rule="evenodd" d="M19.4877 13.0486L16.5413 7.9452C14.8845 5.07545 11.2149 4.0922 8.34517 5.74905C5.47541 7.4059 4.49216 11.0754 6.14901 13.9452L9.09544 19.0486C9.12503 19.0998 9.19056 19.1174 9.2418 19.0878L10.7367 18.2247C10.8164 18.1787 10.8438 18.0767 10.7977 17.997L7.88106 12.9452C6.7765 11.032 7.432 8.58567 9.34517 7.4811C11.2583 6.37653 13.7047 7.03203 14.8093 8.9452L17.7259 13.997C17.772 14.0767 17.8739 14.104 17.9536 14.058L19.4485 13.1949C19.4998 13.1653 19.5173 13.0998 19.4877 13.0486ZM7.59517 4.45001C4.00797 6.52108 2.77891 11.108 4.84998 14.6952L7.7964 19.7986C8.2402 20.5673 9.22312 20.8306 9.9918 20.3868L11.4867 19.5237C12.2839 19.0635 12.557 18.0442 12.0968 17.247L9.1801 12.1952C8.48975 10.9995 8.89943 9.47049 10.0952 8.78014C11.2909 8.08978 12.8199 8.49947 13.5102 9.6952L16.4269 14.747C16.8871 15.5442 17.9065 15.8173 18.7036 15.3571L20.1985 14.494C20.9672 14.0502 21.2306 13.0673 20.7868 12.2986L17.8404 7.1952C15.7693 3.60801 11.1824 2.37894 7.59517 4.45001Z" fill="#131F60"/>
<path fill-rule="evenodd" clip-rule="evenodd" d="M7.08191 16.686L9.92355 15.0453L10.6736 16.3444L7.83191 17.985L7.08191 16.686Z" fill="#131F60"/>
<path fill-rule="evenodd" clip-rule="evenodd" d="M15.2008 11.9985L18.0425 10.3578L18.7925 11.6569L15.9508 13.2975L15.2008 11.9985Z" fill="#131F60"/>
</svg>
