<svg width="24" height="24" viewBox="0 0 24 24" fill="none" xmlns="http://www.w3.org/2000/svg">
<path fill-rule="evenodd" clip-rule="evenodd" d="M12 19.5C16.1421 19.5 19.5 16.1421 19.5 12C19.5 7.85786 16.1421 4.5 12 4.5C7.85786 4.5 4.5 7.85786 4.5 12C4.5 16.1421 7.85786 19.5 12 19.5ZM12 21C16.9706 21 21 16.9706 21 12C21 7.02944 16.9706 3 12 3C7.02944 3 3 7.02944 3 12C3 16.9706 7.02944 21 12 21Z" fill="#131F60"/>
<path d="M12.219 15.8874C11.7081 15.8874 11.2336 15.7975 10.7956 15.6178C10.3577 15.4311 9.98543 15.1788 9.67886 14.8607C9.50918 14.6847 9.36409 14.4939 9.2436 14.2882C9.07948 14.008 9.23836 13.6667 9.54006 13.5467C9.84767 13.4243 10.1889 13.5787 10.3786 13.8501C10.5399 14.0811 10.7337 14.2728 10.9599 14.4252C11.3394 14.681 11.7774 14.8089 12.2737 14.8089C12.5657 14.8089 12.8212 14.7674 13.0402 14.6844C13.2591 14.5946 13.427 14.4701 13.5438 14.3111C13.6679 14.1521 13.73 13.9689 13.73 13.7615C13.73 13.478 13.646 13.2533 13.4781 13.0874C13.3102 12.9215 13.0621 12.7901 12.7336 12.6933L11.2008 12.237C10.5876 12.0573 10.1205 11.7842 9.79929 11.4178C9.47813 11.0444 9.31754 10.6089 9.31754 10.1111C9.31754 9.67556 9.43068 9.29531 9.65696 8.97037C9.88324 8.63852 10.1935 8.37926 10.5876 8.19259C10.9891 8.00593 11.4453 7.91259 11.9562 7.91259C12.4453 7.91259 12.8905 7.99556 13.292 8.16148C13.6935 8.32049 14.0365 8.54173 14.3212 8.82519C14.4741 8.97363 14.605 9.1344 14.7138 9.3075C14.8809 9.57317 14.7295 9.90461 14.4397 10.0251C14.1341 10.1521 13.7922 9.99396 13.5886 9.73303C13.4596 9.56769 13.306 9.42754 13.1278 9.31259C12.792 9.09136 12.4015 8.98074 11.9562 8.98074C11.6862 8.98074 11.4489 9.02568 11.2446 9.11556C11.0402 9.19852 10.8796 9.32296 10.7628 9.48889C10.6533 9.6479 10.5986 9.83457 10.5986 10.0489C10.5986 10.2978 10.6825 10.519 10.8504 10.7126C11.0183 10.9062 11.2737 11.0514 11.6168 11.1481L13.0402 11.5733C13.6898 11.76 14.1789 12.0296 14.5073 12.3822C14.8358 12.7279 15 13.16 15 13.6785C15 14.1072 14.8796 14.4874 14.6387 14.8193C14.4051 15.1511 14.0803 15.4138 13.6643 15.6074C13.2482 15.7941 12.7664 15.8874 12.219 15.8874ZM12.1533 16.8C11.9114 16.8 11.7154 16.6039 11.7154 16.362V7.43796C11.7154 7.19608 11.9114 7 12.1533 7C12.3952 7 12.5913 7.19608 12.5913 7.43796V16.362C12.5913 16.6039 12.3952 16.8 12.1533 16.8Z" fill="#131F60"/>
</svg>
