<svg width="24" height="24" viewBox="0 0 24 24" fill="none" xmlns="http://www.w3.org/2000/svg">
<path fill-rule="evenodd" clip-rule="evenodd" d="M18 6.5H6C5.17157 6.5 4.5 7.17157 4.5 8V16C4.5 16.8284 5.17157 17.5 6 17.5H18C18.8284 17.5 19.5 16.8284 19.5 16V8C19.5 7.17157 18.8284 6.5 18 6.5ZM6 5C4.34315 5 3 6.34315 3 8V16C3 17.6569 4.34315 19 6 19H18C19.6569 19 21 17.6569 21 16V8C21 6.34315 19.6569 5 18 5H6Z" fill="#131F60"/>
<path fill-rule="evenodd" clip-rule="evenodd" d="M4.32672 6.26032C4.59717 5.94658 5.07075 5.9115 5.38448 6.18195L12.0001 11.8848L18.6156 6.18195C18.9294 5.9115 19.4029 5.94658 19.6734 6.26032C19.9438 6.57405 19.9087 7.04763 19.595 7.31808L12.4897 13.4431C12.2083 13.6857 11.7918 13.6857 11.5104 13.4431L4.40509 7.31808C4.09136 7.04763 4.05627 6.57405 4.32672 6.26032Z" fill="#131F60"/>
</svg>
