<svg width="24" height="24" viewBox="0 0 24 24" fill="none" xmlns="http://www.w3.org/2000/svg">
<path fill-rule="evenodd" clip-rule="evenodd" d="M9.07139 16.2647L10.0085 19.0761L12.8199 16.2647H18C18.8284 16.2647 19.5 15.5931 19.5 14.7647V7C19.5 6.17157 18.8284 5.5 18 5.5H6C5.17157 5.5 4.5 6.17157 4.5 7V14.7647C4.5 15.5931 5.17157 16.2647 6 16.2647H9.07139ZM3 7C3 5.34315 4.34315 4 6 4H18C19.6569 4 21 5.34315 21 7V14.7647C21 16.4216 19.6569 17.7647 18 17.7647H13.4412L10.4971 20.7088C9.97147 21.2345 9.07641 21.0232 8.84133 20.3179L7.99025 17.7647H6C4.34315 17.7647 3 16.4216 3 14.7647V7Z" fill="#131F60"/>
</svg>
