<svg width="24" height="24" viewBox="0 0 24 24" fill="none" xmlns="http://www.w3.org/2000/svg">
<path fill-rule="evenodd" clip-rule="evenodd" d="M19.9999 6.5H7.99993C7.35464 6.5 6.80452 6.90747 6.59283 7.47915L5.45032 6.41825C5.97965 5.56682 6.9236 5 7.99993 5H19.9999C21.6568 5 22.9999 6.34315 22.9999 8V16C22.9999 17.6569 21.6568 19 19.9999 19H7.99993H7.99989V17.5H7.99993H19.9999C20.8284 17.5 21.4999 16.8284 21.4999 16V8C21.4999 7.17157 20.8284 6.5 19.9999 6.5Z" fill="#131F60"/>
<path fill-rule="evenodd" clip-rule="evenodd" d="M6.3266 6.26032C6.59705 5.94658 7.07063 5.9115 7.38436 6.18195L13.9999 11.8848L20.6155 6.18195C20.9292 5.9115 21.4028 5.94658 21.6733 6.26032C21.9437 6.57405 21.9086 7.04763 21.5949 7.31808L14.4896 13.4431C14.2082 13.6857 13.7916 13.6857 13.5102 13.4431L6.40497 7.31808C6.09124 7.04763 6.05615 6.57405 6.3266 6.26032Z" fill="#131F60"/>
<path fill-rule="evenodd" clip-rule="evenodd" d="M4.13633 8.46967C4.42922 8.17678 4.90409 8.17678 5.19699 8.46967L8.53027 11.8029C8.67093 11.9436 8.74995 12.1343 8.74995 12.3333C8.74995 12.5322 8.67093 12.7229 8.53028 12.8636L5.19699 16.1969C4.9041 16.4898 4.42922 16.4898 4.13633 16.1969C3.84343 15.904 3.84343 15.4291 4.13633 15.1362L6.18929 13.0833H1C0.585786 13.0833 0.25 12.7475 0.25 12.3333C0.25 11.919 0.585786 11.5833 1 11.5833H6.18928L4.13633 9.53033C3.84344 9.23744 3.84343 8.76257 4.13633 8.46967Z" fill="#131F60"/>
</svg>
