<svg width="24" height="24" viewBox="0 0 24 24" fill="none" xmlns="http://www.w3.org/2000/svg">
<path fill-rule="evenodd" clip-rule="evenodd" d="M7.69739 19.4528C7.28317 19.4528 6.94739 19.117 6.94739 18.7028V10.4447C6.94739 10.0305 7.28317 9.69469 7.69739 9.69469C8.1116 9.69469 8.44739 10.0305 8.44739 10.4447V18.7028C8.44739 19.117 8.1116 19.4528 7.69739 19.4528Z" fill="#131F60"/>
<path fill-rule="evenodd" clip-rule="evenodd" d="M9.72581 7.25911C9.72581 6.09218 8.77983 5.1462 7.6129 5.1462C6.44598 5.1462 5.5 6.09218 5.5 7.25911C5.5 8.42603 6.44598 9.37201 7.6129 9.37201C8.77983 9.37201 9.72581 8.42603 9.72581 7.25911ZM11.2258 7.25911C11.2258 5.26375 9.60825 3.6462 7.6129 3.6462C5.61755 3.6462 4 5.26375 4 7.25911C4 9.25446 5.61755 10.872 7.6129 10.872C9.60825 10.872 11.2258 9.25446 11.2258 7.25911Z" fill="#131F60"/>
<path fill-rule="evenodd" clip-rule="evenodd" d="M16.386 4.64337C16.8002 4.64337 17.136 4.97916 17.136 5.39337V13.6514C17.136 14.0656 16.8002 14.4014 16.386 14.4014C15.9718 14.4014 15.636 14.0656 15.636 13.6514L15.636 5.39337C15.636 4.97916 15.9718 4.64337 16.386 4.64337Z" fill="#131F60"/>
<path fill-rule="evenodd" clip-rule="evenodd" d="M14.2742 16.8376C14.2742 18.0045 15.2202 18.9505 16.3871 18.9505C17.554 18.9505 18.5 18.0045 18.5 16.8376C18.5 15.6706 17.554 14.7247 16.3871 14.7247C15.2202 14.7247 14.2742 15.6706 14.2742 16.8376ZM12.7742 16.8376C12.7742 18.8329 14.3917 20.4505 16.3871 20.4505C18.3824 20.4505 20 18.8329 20 16.8376C20 14.8422 18.3824 13.2247 16.3871 13.2247C14.3917 13.2247 12.7742 14.8422 12.7742 16.8376Z" fill="#131F60"/>
</svg>
