<svg width="24" height="24" viewBox="0 0 24 24" fill="none" xmlns="http://www.w3.org/2000/svg">
<path fill-rule="evenodd" clip-rule="evenodd" d="M12 5.25C10.4812 5.25 9.25 6.48122 9.25 8C9.25 9.51878 10.4812 10.75 12 10.75C13.5188 10.75 14.75 9.51878 14.75 8C14.75 6.48122 13.5188 5.25 12 5.25ZM7.75 8C7.75 5.65279 9.65279 3.75 12 3.75C14.3472 3.75 16.25 5.65279 16.25 8C16.25 10.3472 14.3472 12.25 12 12.25C9.65279 12.25 7.75 10.3472 7.75 8Z" fill="#131F60"/>
<path fill-rule="evenodd" clip-rule="evenodd" d="M12 14.75C9.70342 14.75 7.74945 16.225 7.03742 18.2816C6.95554 18.5181 7.0096 18.7276 7.17169 18.9074C7.34734 19.1023 7.64932 19.25 7.99995 19.25H16C16.3506 19.25 16.6526 19.1023 16.8282 18.9074C16.9903 18.7276 17.0444 18.5181 16.9625 18.2816C16.2505 16.225 14.2965 14.75 12 14.75ZM5.61997 17.7908C6.53468 15.1489 9.0446 13.25 12 13.25C14.9553 13.25 17.4652 15.1489 18.3799 17.7908C18.6594 18.5981 18.4301 19.3705 17.9424 19.9117C17.4682 20.4377 16.7539 20.75 16 20.75H7.99995C7.24602 20.75 6.53169 20.4377 6.0575 19.9117C5.56977 19.3705 5.34048 18.5981 5.61997 17.7908Z" fill="#131F60"/>
</svg>
