<svg width="24" height="24" viewBox="0 0 24 24" fill="none" xmlns="http://www.w3.org/2000/svg">
<path d="M6.89487 6.07308L7.26465 17.0606C7.29548 17.9766 8.43973 18.372 9.02952 17.6705L12.1041 14.0133C12.255 13.8339 12.4641 13.7131 12.695 13.6722L17.3995 12.8381C18.3019 12.6781 18.5316 11.4894 17.7537 11.0047L8.42315 5.19073C7.74418 4.76765 6.86797 5.27354 6.89487 6.07308Z" fill="#131F60"/>
<path d="M10.7008 13.6313C10.4247 13.1531 10.5885 12.5415 11.0668 12.2653L11.6998 11.8999C12.1781 11.6237 12.7897 11.7876 13.0658 12.2659L15.707 16.8406C15.9832 17.3189 15.8193 17.9305 15.341 18.2066L14.708 18.5721C14.2297 18.8482 13.6181 18.6843 13.342 18.206L10.7008 13.6313Z" fill="#131F60"/>
</svg>
