<svg width="24" height="24" viewBox="0 0 24 24" fill="none" xmlns="http://www.w3.org/2000/svg">
<path fill-rule="evenodd" clip-rule="evenodd" d="M9 5.25C7.48122 5.25 6.25 6.48122 6.25 8C6.25 9.51878 7.48122 10.75 9 10.75C10.5188 10.75 11.75 9.51878 11.75 8C11.75 6.48122 10.5188 5.25 9 5.25ZM4.75 8C4.75 5.65279 6.65279 3.75 9 3.75C11.3472 3.75 13.25 5.65279 13.25 8C13.25 10.3472 11.3472 12.25 9 12.25C6.65279 12.25 4.75 10.3472 4.75 8Z" fill="#131F60"/>
<path fill-rule="evenodd" clip-rule="evenodd" d="M8.99996 14.75C6.70342 14.75 4.74945 16.225 4.03742 18.2816C3.95554 18.5181 4.0096 18.7276 4.17169 18.9074C4.34734 19.1023 4.64932 19.25 4.99995 19.25H13C13.3506 19.25 13.6526 19.1023 13.8282 18.9074C13.9903 18.7276 14.0444 18.5181 13.9625 18.2816C13.2505 16.225 11.2965 14.75 8.99996 14.75ZM2.61997 17.7908C3.53468 15.1489 6.0446 13.25 8.99996 13.25C11.9553 13.25 14.4652 15.1489 15.3799 17.7908C15.6594 18.5981 15.4301 19.3705 14.9424 19.9117C14.4682 20.4377 13.7539 20.75 13 20.75H4.99995C4.24602 20.75 3.53169 20.4377 3.0575 19.9117C2.56977 19.3705 2.34048 18.5981 2.61997 17.7908Z" fill="#131F60"/>
<path fill-rule="evenodd" clip-rule="evenodd" d="M14.25 4.5C14.25 4.08579 14.5858 3.75 15 3.75C17.3472 3.75 19.25 5.65279 19.25 8C19.25 10.3472 17.3472 12.25 15 12.25C14.5858 12.25 14.25 11.9142 14.25 11.5C14.25 11.0858 14.5858 10.75 15 10.75C16.5188 10.75 17.75 9.51878 17.75 8C17.75 6.48122 16.5188 5.25 15 5.25C14.5858 5.25 14.25 4.91421 14.25 4.5Z" fill="#131F60"/>
<path fill-rule="evenodd" clip-rule="evenodd" d="M15.2602 13.8767C15.3283 13.4681 15.7147 13.1921 16.1233 13.2602C18.7315 13.6949 20.725 15.3088 21.4528 17.8152C21.688 18.6253 21.4387 19.3861 20.947 19.9187C20.4664 20.4393 19.754 20.75 19 20.75H17.5C17.0858 20.75 16.75 20.4142 16.75 20C16.75 19.5858 17.0858 19.25 17.5 19.25H19C19.3506 19.25 19.6584 19.1032 19.8449 18.9012C20.0204 18.7111 20.085 18.4841 20.0123 18.2334C19.4623 16.3392 17.9783 15.0901 15.8767 14.7398C15.4681 14.6717 15.1921 14.2853 15.2602 13.8767Z" fill="#131F60"/>
</svg>
