<svg width="24" height="24" viewBox="0 0 24 24" fill="none" xmlns="http://www.w3.org/2000/svg">
<path fill-rule="evenodd" clip-rule="evenodd" d="M14.1279 14.6128C13.9642 14.0832 13.942 13.5433 13.9806 13.0605C14.0407 12.3064 14.2607 11.5308 14.5216 10.8139C14.7981 10.0541 15.1546 9.26715 15.6403 8.62417C15.9223 8.25073 16.2841 7.88009 16.7369 7.60433L10.1862 5.22006C10.3561 5.68936 10.4205 6.17751 10.4216 6.637C10.4237 7.46709 10.2239 8.32868 9.93041 9.135C9.65408 9.89423 9.2837 10.6355 8.79915 11.2484C8.50025 11.6264 8.12946 11.9903 7.68062 12.2661L14.1279 14.6128ZM8.43256 5.15056C8.37993 5.09208 8.31443 5.04759 8.24058 5.02071C7.99583 4.93163 7.86991 4.6577 7.95997 4.41026L8.30978 3.44917C8.39898 3.20142 8.67152 3.07251 8.91627 3.16159L19.011 6.83577C19.2557 6.92485 19.3816 7.19878 19.2916 7.44622L18.9418 8.40731C18.8517 8.65474 18.5792 8.78365 18.3344 8.69457C18.2597 8.66738 18.1789 8.6596 18.1007 8.67144C17.1139 8.81763 16.4415 9.92482 15.9311 11.327C15.4515 12.6449 15.2486 13.8541 15.775 14.615C15.829 14.6936 15.908 14.7519 15.9973 14.7844L16.1038 14.8232C16.3485 14.9122 16.4745 15.1862 16.3844 15.4336L16.0346 16.3947C15.9445 16.6421 15.672 16.771 15.4272 16.682L11.4065 15.2185L9.38037 20.7854C9.26724 21.0962 8.92688 21.2565 8.6203 21.1449L7.57262 20.7636C7.26604 20.652 7.10833 20.3104 7.22145 19.9996L9.24763 14.4328L5.33255 13.0078C5.0878 12.9187 4.96188 12.6448 5.05194 12.3973L5.40175 11.4362C5.49181 11.1888 5.76435 11.0599 6.0091 11.149L6.11902 11.189C6.20833 11.2215 6.30572 11.2265 6.3979 11.203C7.31284 10.9657 8.04087 9.94075 8.52087 8.62197C9.03184 7.2181 9.10805 5.89983 8.43256 5.15056Z" fill="#131F60"/>
</svg>
