<svg width="24" height="24" viewBox="0 0 24 24" fill="none" xmlns="http://www.w3.org/2000/svg">
<path fill-rule="evenodd" clip-rule="evenodd" d="M11.5556 4.5835C11.9698 4.5835 12.3056 4.91928 12.3056 5.3335V10.0557C12.3056 11.2984 11.2982 12.3057 10.0556 12.3057H5.77783C5.36362 12.3057 5.02783 11.9699 5.02783 11.5557C5.02783 11.1415 5.36362 10.8057 5.77783 10.8057H10.0556C10.4698 10.8057 10.8056 10.4699 10.8056 10.0557V5.3335C10.8056 4.91928 11.1414 4.5835 11.5556 4.5835Z" fill="#131F60"/>
<path fill-rule="evenodd" clip-rule="evenodd" d="M17 5.5H7C6.17157 5.5 5.5 6.17157 5.5 7V17C5.5 17.8284 6.17157 18.5 7 18.5H17C17.8284 18.5 18.5 17.8284 18.5 17V7C18.5 6.17157 17.8284 5.5 17 5.5ZM7 4C5.34315 4 4 5.34315 4 7V17C4 18.6569 5.34315 20 7 20H17C18.6569 20 20 18.6569 20 17V7C20 5.34315 18.6569 4 17 4H7Z" fill="#131F60"/>
</svg>
