<svg width="24" height="24" viewBox="0 0 24 24" fill="none" xmlns="http://www.w3.org/2000/svg">
<path fill-rule="evenodd" clip-rule="evenodd" d="M6.63626 6.25C5.99896 6.25 5.61967 6.81501 5.79542 7.33589C6.51652 9.47291 7.85528 12.6704 9.84248 14.6576C11.8297 16.6448 15.0272 17.9836 17.1642 18.7046C17.685 18.8804 18.2501 18.5011 18.2501 17.8638V15.6916C18.2501 15.6529 18.2291 15.6174 18.1955 15.5987L16.3033 14.5467C16.2726 14.5296 16.2355 14.5288 16.2042 14.5445L14.1862 15.5535C14.0389 15.6271 13.8714 15.6502 13.7096 15.6192L13.8508 14.8826C13.7096 15.6192 13.7098 15.6193 13.7096 15.6192L13.7086 15.619L13.7075 15.6188L13.7048 15.6183L13.6978 15.6169L13.6773 15.6126C13.6608 15.6091 13.6388 15.6042 13.6116 15.5978C13.5571 15.5849 13.482 15.5658 13.3896 15.5392C13.2052 15.486 12.9504 15.402 12.6547 15.2759C12.066 15.0251 11.2962 14.5997 10.5983 13.9018C9.90052 13.204 9.47394 12.4331 9.22195 11.8437C9.0953 11.5475 9.0107 11.2923 8.95701 11.1076C8.93011 11.0151 8.91084 10.9398 8.89783 10.8853C8.89133 10.8581 8.88638 10.836 8.88283 10.8196L8.87852 10.7991L8.87711 10.7921L8.87658 10.7895L8.87636 10.7883C8.87631 10.7881 8.87617 10.7874 9.61237 10.6442L8.87636 10.7883C8.84477 10.626 8.86757 10.4567 8.94156 10.3087L9.95063 8.29068C9.95062 8.2907 9.95064 8.29066 9.95063 8.29068C9.96632 8.25924 9.9655 8.22213 9.94853 8.19156L8.90106 6.30472C8.88235 6.27101 8.84679 6.25 8.80813 6.25H6.63626ZM10.409 10.728C10.4491 10.8611 10.511 11.043 10.6012 11.254C10.8014 11.7223 11.1329 12.3151 11.659 12.8411C12.1849 13.367 12.7762 13.6972 13.2427 13.896C13.4528 13.9855 13.6338 14.0468 13.7662 14.0864L15.5332 13.2029C16.0077 12.9657 16.5686 12.978 17.0321 13.2357L18.9243 14.2877C18.9243 14.2877 18.9243 14.2877 18.9243 14.2877C19.434 14.571 19.7501 15.1085 19.7501 15.6916V17.8638C19.7501 19.4389 18.26 20.6575 16.6847 20.1259C14.5162 19.3943 11.0306 17.967 8.78182 15.7182C6.53309 13.4695 5.10583 9.98382 4.37415 7.81546C3.84258 6.24004 5.06122 4.75 6.63626 4.75H8.80813C9.39164 4.75 9.9293 5.06641 10.2125 5.57667M10.2125 5.57667L11.2599 7.46336C11.2599 7.46334 11.2599 7.46339 11.2599 7.46336C11.5172 7.92685 11.5293 8.48741 11.2923 8.96141L10.409 10.728" fill="#131F60"/>
</svg>
