<svg width="24" height="24" viewBox="0 0 24 24" fill="none" xmlns="http://www.w3.org/2000/svg">
<path d="M1.83144 12.2612C1.75882 11.7956 2.07736 11.3593 2.54291 11.2867L9.07266 10.2682C9.53822 10.1956 9.97449 10.5141 10.0471 10.9797L11.0657 17.5094C11.1383 17.975 10.8197 18.4112 10.3542 18.4839L3.82443 19.5024C3.35887 19.575 2.9226 19.2565 2.84998 18.7909L1.83144 12.2612Z" fill="#131F60"/>
<path d="M17.1593 6.57057C17.1593 8.54254 15.5607 10.1411 13.5888 10.1411C11.6168 10.1411 10.0182 8.54254 10.0182 6.57057C10.0182 4.5986 11.6168 3 13.5888 3C15.5607 3 17.1593 4.5986 17.1593 6.57057Z" fill="#131F60"/>
<path d="M16.4235 12.1902L12.0384 19.7179C11.7071 20.2867 12.1174 21.0005 12.7756 21.0005H21.5458C22.204 21.0005 22.6143 20.2867 22.283 19.7179L17.8979 12.1902C17.5688 11.6252 16.7526 11.6252 16.4235 12.1902Z" fill="#131F60"/>
</svg>
