<svg width="24" height="24" viewBox="0 0 24 24" fill="none" xmlns="http://www.w3.org/2000/svg">
<path fill-rule="evenodd" clip-rule="evenodd" d="M9.07692 12.5128C7.29021 11.2617 6.85599 8.79908 8.10705 7.01238C9.35812 5.22567 11.8207 4.79144 13.6074 6.04251L15.573 7.41882C15.9123 7.6564 15.9948 8.12406 15.7572 8.46336C15.5196 8.80267 15.0519 8.88513 14.7126 8.64755L12.7471 7.27124C11.639 6.49534 10.1117 6.76464 9.33578 7.87274C8.55988 8.98084 8.82918 10.5081 9.93728 11.284L12.8191 13.3019C13.1584 13.5394 13.2408 14.0071 13.0032 14.3464C12.7657 14.6857 12.298 14.7682 11.9587 14.5306L9.07692 12.5128Z" fill="#131F60"/>
<path fill-rule="evenodd" clip-rule="evenodd" d="M14.906 11.2217C16.6927 12.4727 17.1269 14.9354 15.8759 16.7221C14.6248 18.5088 12.1622 18.943 10.3755 17.6919L8.40991 16.3156C8.07061 16.078 7.98814 15.6104 8.22573 15.2711C8.46331 14.9318 8.93097 14.8493 9.27027 15.0869L11.2358 16.4632C12.3439 17.2391 13.8712 16.9698 14.6471 15.8617C15.423 14.7536 15.1537 13.2263 14.0456 12.4504L11.1639 10.4326C10.8246 10.195 10.7421 9.72733 10.9797 9.38803C11.2173 9.04872 11.6849 8.96626 12.0242 9.20385L14.906 11.2217Z" fill="#131F60"/>
<path fill-rule="evenodd" clip-rule="evenodd" d="M12.2871 3.25C12.7013 3.25 13.0371 3.58579 13.0371 4V6.03637C13.0371 6.45058 12.7013 6.78637 12.2871 6.78637C11.8729 6.78637 11.5371 6.45058 11.5371 6.03637V4C11.5371 3.58579 11.8729 3.25 12.2871 3.25Z" fill="#131F60"/>
<path fill-rule="evenodd" clip-rule="evenodd" d="M11.7059 17.2133C12.1201 17.2133 12.4559 17.5491 12.4559 17.9633V19.9997C12.4559 20.4139 12.1201 20.7497 11.7059 20.7497C11.2917 20.7497 10.9559 20.4139 10.9559 19.9997V17.9633C10.9559 17.5491 11.2917 17.2133 11.7059 17.2133Z" fill="#131F60"/>
</svg>
