<svg width="24" height="24" viewBox="0 0 24 24" fill="none" xmlns="http://www.w3.org/2000/svg">
<path fill-rule="evenodd" clip-rule="evenodd" d="M12 19.5C16.1421 19.5 19.5 16.1421 19.5 12C19.5 7.85786 16.1421 4.5 12 4.5C7.85786 4.5 4.5 7.85786 4.5 12C4.5 16.1421 7.85786 19.5 12 19.5ZM12 21C16.9706 21 21 16.9706 21 12C21 7.02944 16.9706 3 12 3C7.02944 3 3 7.02944 3 12C3 16.9706 7.02944 21 12 21Z" fill="#131F60"/>
<path fill-rule="evenodd" clip-rule="evenodd" d="M8.50345 14.0262C8.81387 13.7519 9.28784 13.7813 9.56208 14.0917C10.0153 14.6047 10.8285 15.2078 11.7565 15.3788C12.6198 15.5379 13.6835 15.3452 14.7909 14.0917C15.0651 13.7813 15.5391 13.7519 15.8495 14.0262C16.1599 14.3004 16.1893 14.7744 15.915 15.0848C14.4813 16.7077 12.8978 17.1144 11.4847 16.854C10.1362 16.6055 9.04357 15.7704 8.43793 15.0848C8.16369 14.7744 8.19302 14.3004 8.50345 14.0262Z" fill="#131F60"/>
<path fill-rule="evenodd" clip-rule="evenodd" d="M10 8.60291C10.4142 8.60291 10.75 8.93869 10.75 9.35291V11C10.75 11.4142 10.4142 11.75 10 11.75C9.58579 11.75 9.25 11.4142 9.25 11V9.35291C9.25 8.93869 9.58579 8.60291 10 8.60291Z" fill="#131F60"/>
<path fill-rule="evenodd" clip-rule="evenodd" d="M14.2354 8.60291C14.6496 8.60291 14.9854 8.93869 14.9854 9.35291V11C14.9854 11.4142 14.6496 11.75 14.2354 11.75C13.8211 11.75 13.4854 11.4142 13.4854 11V9.35291C13.4854 8.93869 13.8211 8.60291 14.2354 8.60291Z" fill="#131F60"/>
</svg>
