<svg width="24" height="24" viewBox="0 0 24 24" fill="none" xmlns="http://www.w3.org/2000/svg">
<g clip-path="url(#clip0_3928_30606)">
<path d="M20.877 9.59547C20.7236 9.10714 20.4171 8.68115 20.0029 8.38049C19.5886 8.07983 19.0886 7.92047 18.5768 7.92597H15.3L14.3048 4.82397C14.1483 4.33568 13.8407 3.90973 13.4265 3.60751C13.0123 3.3053 12.5128 3.14246 12 3.14246C11.4873 3.14246 10.9878 3.3053 10.5735 3.60751C10.1593 3.90973 9.85178 4.33568 9.69527 4.82397L8.70002 7.92597H5.42327C4.91308 7.92669 4.41617 8.08863 4.00351 8.38864C3.59085 8.68866 3.28355 9.11141 3.12551 9.59651C2.96747 10.0816 2.96677 10.6042 3.12352 11.0898C3.28026 11.5753 3.58642 11.9988 3.99827 12.3L6.66527 14.25L5.65127 17.3902C5.48741 17.8773 5.48533 18.4042 5.64535 18.8925C5.80538 19.3808 6.11893 19.8044 6.53927 20.1C6.95241 20.4051 7.45307 20.5685 7.96664 20.5659C8.48021 20.5634 8.9792 20.3949 9.38927 20.0857L12 18.1642L14.6115 20.0835C15.0239 20.3868 15.5219 20.5516 16.0338 20.5541C16.5457 20.5566 17.0453 20.3967 17.4606 20.0973C17.8759 19.798 18.1856 19.3747 18.3452 18.8883C18.5048 18.4019 18.5061 17.8774 18.3488 17.3902L17.3348 14.25L20.0048 12.3C20.4213 12.0026 20.7311 11.5791 20.8882 11.092C21.0453 10.6049 21.0414 10.0802 20.877 9.59547ZM19.1198 11.0887L16.0118 13.3605C15.8841 13.4536 15.7891 13.5847 15.7404 13.735C15.6916 13.8853 15.6916 14.0471 15.7403 14.1975L16.9215 17.85C16.9813 18.0352 16.9808 18.2347 16.9201 18.4196C16.8593 18.6045 16.7415 18.7655 16.5836 18.8792C16.4256 18.993 16.2357 19.0538 16.041 19.0528C15.8464 19.0518 15.6571 18.9891 15.5003 18.8737L12.444 16.6237C12.3153 16.5292 12.1597 16.4782 12 16.4782C11.8403 16.4782 11.6847 16.5292 11.556 16.6237L8.49977 18.8737C8.34308 18.9907 8.15323 19.0546 7.95772 19.0564C7.76222 19.0582 7.57123 18.9977 7.41244 18.8836C7.25366 18.7695 7.13533 18.6078 7.07462 18.422C7.01391 18.2361 7.01396 18.0358 7.07477 17.85L8.25977 14.1975C8.30846 14.0471 8.30842 13.8853 8.25967 13.735C8.21091 13.5847 8.11593 13.4536 7.98827 13.3605L4.88027 11.0887C4.72375 10.9741 4.60745 10.813 4.54798 10.6283C4.48851 10.4437 4.48891 10.2449 4.54914 10.0605C4.60936 9.87613 4.72632 9.71547 4.8833 9.60151C5.04029 9.48754 5.22928 9.4261 5.42327 9.42597H9.24827C9.40706 9.42596 9.56175 9.37556 9.69006 9.28202C9.81837 9.18848 9.91368 9.05664 9.96227 8.90547L11.1248 5.28222C11.1844 5.0968 11.3014 4.93511 11.4588 4.8204C11.6162 4.7057 11.806 4.64389 12.0008 4.64389C12.1955 4.64389 12.3853 4.7057 12.5427 4.8204C12.7001 4.93511 12.8171 5.0968 12.8768 5.28222L14.0393 8.90547C14.0879 9.05664 14.1832 9.18848 14.3115 9.28202C14.4398 9.37556 14.5945 9.42596 14.7533 9.42597H18.5783C18.7723 9.4261 18.9613 9.48754 19.1182 9.60151C19.2752 9.71547 19.3922 9.87613 19.4524 10.0605C19.5126 10.2449 19.513 10.4437 19.4536 10.6283C19.3941 10.813 19.2778 10.9741 19.1213 11.0887H19.1198Z" fill="#131F60"/>
</g>
<defs>
<clipPath id="clip0_3928_30606">
<rect width="18" height="18" fill="white" transform="translate(3 3)"/>
</clipPath>
</defs>
</svg>
