<svg width="24" height="24" viewBox="0 0 24 24" fill="none" xmlns="http://www.w3.org/2000/svg">
<path fill-rule="evenodd" clip-rule="evenodd" d="M19.1879 3.91423C19.396 4.08063 19.5002 4.34496 19.4616 4.60861L17.1201 20.6086C17.0752 20.9158 16.8456 21.1635 16.5427 21.2317C16.2398 21.2999 15.9262 21.1744 15.754 20.916L11.2041 14.0911L3.233 11.0545C2.9426 10.9439 2.7505 10.6656 2.75 10.3549C2.7495 10.0441 2.94071 9.76522 3.23077 9.65366L18.4503 3.8C18.699 3.70435 18.9798 3.74783 19.1879 3.91423ZM5.59797 10.3503L11.9621 12.7748C12.1079 12.8303 12.2327 12.9298 12.3192 13.0596L15.9187 18.459L17.7917 5.66042L5.59797 10.3503Z" fill="#131F60"/>
<path fill-rule="evenodd" clip-rule="evenodd" d="M14.9881 9.43057C15.3026 9.70014 15.339 10.1736 15.0695 10.4881L12.0695 13.9881C11.7999 14.3026 11.3264 14.339 11.0119 14.0695C10.6974 13.7999 10.661 13.3264 10.9306 13.0119L13.9306 9.51192C14.2001 9.19743 14.6736 9.161 14.9881 9.43057Z" fill="#131F60"/>
</svg>
