<svg width="24" height="24" viewBox="0 0 24 24" fill="none" xmlns="http://www.w3.org/2000/svg">
<path fill-rule="evenodd" clip-rule="evenodd" d="M7.49995 5.00006L5.49999 5.00008C4.94771 5.00009 4.5 5.4478 4.5 6.00008V19C4.5 19.5523 4.94772 20 5.5 20H18.5C19.0523 20 19.5 19.5523 19.5 19V10.2356C19.5 9.97039 19.3946 9.71604 19.2071 9.5285L14.9715 5.29289C14.7839 5.10535 14.5296 5 14.2644 5L11.5 5.00003V8.99997C11.5 9.55225 11.0522 9.99997 10.5 9.99997H8.49995C7.94767 9.99997 7.49995 9.55225 7.49995 8.99997V5.00006ZM7.49991 14C7.49991 13.4477 7.94762 13 8.49991 13H15.4999C16.0522 13 16.4999 13.4477 16.4999 14V16C16.4999 16.5522 16.0522 17 15.4999 17H8.49991C7.94762 17 7.49991 16.5522 7.49991 16V14Z" fill="#131F60"/>
</svg>
