<svg width="24" height="24" viewBox="0 0 24 24" fill="none" xmlns="http://www.w3.org/2000/svg">
<path fill-rule="evenodd" clip-rule="evenodd" d="M17.3918 3.36047C17.6143 3.4968 17.75 3.73902 17.75 4L17.75 16C17.75 16.261 17.6143 16.5032 17.3918 16.6395C17.1693 16.7759 16.8918 16.7867 16.6593 16.6682L10.6593 13.6091C10.4081 13.481 10.25 13.2229 10.25 12.9409V7.05906C10.25 6.7771 10.4081 6.51896 10.6593 6.39089L16.6593 3.33183C16.8918 3.21329 17.1693 3.22414 17.3918 3.36047ZM11.75 7.51853V12.4815L16.25 14.7758L16.25 5.22424L11.75 7.51853Z" fill="#131F60"/>
<path fill-rule="evenodd" clip-rule="evenodd" d="M3.25 9C3.25 7.48122 4.48122 6.25 6 6.25H11C11.4142 6.25 11.75 6.58579 11.75 7C11.75 7.41421 11.4142 7.75 11 7.75H6C5.30964 7.75 4.75 8.30964 4.75 9V11C4.75 11.6904 5.30964 12.25 6 12.25H11C11.4142 12.25 11.75 12.5858 11.75 13C11.75 13.4142 11.4142 13.75 11 13.75H6C4.48122 13.75 3.25 12.5188 3.25 11V9Z" fill="#131F60"/>
<path fill-rule="evenodd" clip-rule="evenodd" d="M20.75 10C20.75 8.48122 19.5188 7.25 18 7.25C17.5858 7.25 17.25 7.58579 17.25 8C17.25 8.41421 17.5858 8.75 18 8.75C18.6904 8.75 19.25 9.30964 19.25 10C19.25 10.6904 18.6904 11.25 18 11.25C17.5858 11.25 17.25 11.5858 17.25 12C17.25 12.4142 17.5858 12.75 18 12.75C19.5188 12.75 20.75 11.5188 20.75 10Z" fill="#131F60"/>
<path fill-rule="evenodd" clip-rule="evenodd" d="M7.75 13V18.5C7.75 18.9142 8.08579 19.25 8.5 19.25C8.91421 19.25 9.25 18.9142 9.25 18.5V13H10.75V18.5C10.75 19.7426 9.74264 20.75 8.5 20.75C7.25736 20.75 6.25 19.7426 6.25 18.5V13H7.75Z" fill="#131F60"/>
</svg>
