<svg width="24" height="24" viewBox="0 0 24 24" fill="none" xmlns="http://www.w3.org/2000/svg">
<path fill-rule="evenodd" clip-rule="evenodd" d="M14.456 20.4672C13.9909 21.5015 12.6799 21.8271 11.785 21.1305L10.6751 20.2665C10.2491 19.935 10 19.4254 10 18.8856V15.2596L5.24617 15.2596C3.48557 15.2596 2.17844 13.6282 2.56235 11.9099L4.16863 4.72073C4.44942 3.46398 5.56472 2.57038 6.85245 2.57038H16.75C17.1642 2.57038 17.5 2.90616 17.5 3.32038L17.5 13.3221C17.5 13.5695 17.4475 13.8141 17.3461 14.0398L14.456 20.4672ZM12.7063 19.9468C12.8342 20.0463 13.0215 19.9998 13.0879 19.852L15.978 13.4246C15.9925 13.3924 16 13.3575 16 13.3221L16 4.07038H6.85245C6.26712 4.07038 5.76017 4.47656 5.63253 5.04781L4.02625 12.237C3.85175 13.018 4.4459 13.7596 5.24617 13.7596L10.75 13.7596C11.1642 13.7596 11.5 14.0954 11.5 14.5096V18.8856C11.5 18.9627 11.5356 19.0355 11.5964 19.0829L12.7063 19.9468Z" fill="#131F60"/>
<path fill-rule="evenodd" clip-rule="evenodd" d="M21.5 12.5366C21.5 13.5031 20.7165 14.2866 19.75 14.2866H16V2.57041H19.75C20.7165 2.57041 21.5 3.35391 21.5 4.32041V12.5366ZM19.75 12.7866C19.8881 12.7866 20 12.6747 20 12.5366V4.32041C20 4.18233 19.8881 4.07041 19.75 4.07041H17.5V12.7866H19.75Z" fill="#131F60"/>
</svg>
