<svg width="24" height="24" viewBox="0 0 24 24" fill="none" xmlns="http://www.w3.org/2000/svg">
<path fill-rule="evenodd" clip-rule="evenodd" d="M4.75 7.53406C4.75 7.11984 5.08579 6.78406 5.5 6.78406H18.5C18.9142 6.78406 19.25 7.11984 19.25 7.53406C19.25 7.94827 18.9142 8.28406 18.5 8.28406H5.5C5.08579 8.28406 4.75 7.94827 4.75 7.53406Z" fill="#131F60"/>
<path fill-rule="evenodd" clip-rule="evenodd" d="M6.43469 6.78406C6.84891 6.78406 7.18469 7.11984 7.18469 7.53406V17.8193C7.18469 18.4432 7.68486 18.9393 8.29183 18.9393H15.7204C16.3274 18.9393 16.8275 18.4432 16.8275 17.8193V7.53406C16.8275 7.11984 17.1633 6.78406 17.5775 6.78406C17.9918 6.78406 18.3275 7.11984 18.3275 7.53406V17.8193C18.3275 19.2618 17.1656 20.4393 15.7204 20.4393H8.29183C6.84667 20.4393 5.68469 19.2618 5.68469 17.8193V7.53406C5.68469 7.11984 6.02048 6.78406 6.43469 6.78406Z" fill="#131F60"/>
<path fill-rule="evenodd" clip-rule="evenodd" d="M8.46655 4.5C8.46655 4.08579 8.80234 3.75 9.21655 3.75H14.788C15.2022 3.75 15.538 4.08579 15.538 4.5C15.538 4.91421 15.2022 5.25 14.788 5.25H9.21655C8.80234 5.25 8.46655 4.91421 8.46655 4.5Z" fill="#131F60"/>
<path fill-rule="evenodd" clip-rule="evenodd" d="M10.1437 10.5303C10.5579 10.5303 10.8937 10.8661 10.8937 11.2803V15.9554C10.8937 16.3696 10.5579 16.7054 10.1437 16.7054C9.72946 16.7054 9.39368 16.3696 9.39368 15.9554V11.2803C9.39368 10.8661 9.72946 10.5303 10.1437 10.5303Z" fill="#131F60"/>
<path fill-rule="evenodd" clip-rule="evenodd" d="M13.8602 10.5303C14.2744 10.5303 14.6102 10.8661 14.6102 11.2803V15.9554C14.6102 16.3696 14.2744 16.7054 13.8602 16.7054C13.446 16.7054 13.1102 16.3696 13.1102 15.9554V11.2803C13.1102 10.8661 13.446 10.5303 13.8602 10.5303Z" fill="#131F60"/>
</svg>
