<svg width="24" height="24" viewBox="0 0 24 24" fill="none" xmlns="http://www.w3.org/2000/svg">
<path fill-rule="evenodd" clip-rule="evenodd" d="M17 5.5H7C6.17157 5.5 5.5 6.17157 5.5 7V17C5.5 17.8284 6.17157 18.5 7 18.5H17C17.8284 18.5 18.5 17.8284 18.5 17V7C18.5 6.17157 17.8284 5.5 17 5.5ZM7 4C5.34315 4 4 5.34315 4 7V17C4 18.6569 5.34315 20 7 20H17C18.6569 20 20 18.6569 20 17V7C20 5.34315 18.6569 4 17 4H7Z" fill="#131F60"/>
<path d="M9.87743 15.7256C9.8091 15.9294 9.61825 16.0667 9.40338 16.0667H8.92229C8.57748 16.0667 8.33616 15.7259 8.45066 15.4006L10.915 8.40061C10.9855 8.20051 11.1745 8.06665 11.3866 8.06665H12.4678C12.6798 8.06665 12.8688 8.20042 12.9393 8.40041L15.4071 15.4004C15.5218 15.7257 15.2804 16.0667 14.9355 16.0667H14.4546C14.2398 16.0667 14.049 15.9295 13.9806 15.7259L11.9683 9.73689C11.9624 9.7192 11.9458 9.70728 11.9271 9.70728C11.9085 9.70728 11.8919 9.71921 11.8859 9.73691L9.87743 15.7256ZM9.81384 13.4299C9.81384 13.1538 10.0377 12.9299 10.3138 12.9299H13.5326C13.8087 12.9299 14.0326 13.1538 14.0326 13.4299V13.594C14.0326 13.8701 13.8087 14.094 13.5326 14.094H10.3138C10.0377 14.094 9.81384 13.8701 9.81384 13.594V13.4299Z" fill="#131F60"/>
</svg>
