<svg width="24" height="24" viewBox="0 0 24 24" fill="none" xmlns="http://www.w3.org/2000/svg">
<path fill-rule="evenodd" clip-rule="evenodd" d="M10.044 3.53282C10.5091 2.49849 11.8201 2.17294 12.715 2.86953L13.8249 3.73346C14.2509 4.06502 14.5 4.57462 14.5 5.11442V8.74043H19.2538C21.0144 8.74043 22.3216 10.3718 21.9377 12.0901L20.3314 19.2793C20.0506 20.536 18.9353 21.4296 17.6475 21.4296H7.75C7.33579 21.4296 7 21.0938 7 20.6796V10.6779C7 10.4305 7.05246 10.1859 7.15393 9.96021L10.044 3.53282ZM11.7937 4.05321C11.6658 3.9537 11.4785 4.00021 11.4121 4.14797L8.52199 10.5754C8.50749 10.6076 8.5 10.6425 8.5 10.6779V19.9296H17.6475C18.2329 19.9296 18.7398 19.5234 18.8675 18.9522L20.4737 11.763C20.6483 10.982 20.0541 10.2404 19.2538 10.2404H13.75C13.3358 10.2404 13 9.90465 13 9.49043V5.11442C13 5.03731 12.9644 4.96451 12.9036 4.91714L11.7937 4.05321Z" fill="#131F60"/>
<path fill-rule="evenodd" clip-rule="evenodd" d="M3 11.4634C3 10.4969 3.7835 9.71338 4.75 9.71338H8.5V21.4296H4.75C3.7835 21.4296 3 20.6461 3 19.6796V11.4634ZM4.75 11.2134C4.61193 11.2134 4.5 11.3253 4.5 11.4634V19.6796C4.5 19.8177 4.61193 19.9296 4.75 19.9296H7V11.2134H4.75Z" fill="#131F60"/>
</svg>
