<svg width="24" height="24" viewBox="0 0 24 24" fill="none" xmlns="http://www.w3.org/2000/svg">
<path fill-rule="evenodd" clip-rule="evenodd" d="M14.4935 4.1469C14.799 3.86716 15.2734 3.88802 15.5531 4.1935L19.5531 8.5615C19.7539 8.7808 19.8062 9.09803 19.6864 9.37018C19.5666 9.64234 19.2974 9.81802 19 9.81802H5C4.58579 9.81802 4.25 9.48223 4.25 9.06802C4.25 8.6538 4.58579 8.31802 5 8.31802H17.2962L14.4469 5.20653C14.1671 4.90106 14.188 4.42664 14.4935 4.1469Z" fill="#131F60"/>
<path fill-rule="evenodd" clip-rule="evenodd" d="M9.50652 19.8131C9.20104 20.0929 8.72662 20.072 8.44688 19.7665L4.44688 15.3985C4.24606 15.1792 4.19376 14.862 4.31356 14.5898C4.43337 14.3177 4.70264 14.142 5 14.142L19 14.142C19.4142 14.142 19.75 14.4778 19.75 14.892C19.75 15.3062 19.4142 15.642 19 15.642L6.70378 15.642L9.55312 18.7535C9.83286 19.059 9.812 19.5334 9.50652 19.8131Z" fill="#131F60"/>
</svg>
