<svg width="24" height="24" viewBox="0 0 24 24" fill="none" xmlns="http://www.w3.org/2000/svg">
<path fill-rule="evenodd" clip-rule="evenodd" d="M11.7927 5.57972C13.5468 3.82565 16.3907 3.82564 18.1448 5.57972C19.8989 7.3338 19.8989 10.1777 18.1448 11.9318L17.4834 12.5932C17.1905 12.8861 16.7156 12.8861 16.4227 12.5932C16.1298 12.3003 16.1298 11.8254 16.4227 11.5326L17.0841 10.8711C18.2524 9.70284 18.2524 7.80867 17.0841 6.64038C15.9158 5.47209 14.0217 5.47209 12.8534 6.64038L11.5305 7.96323C10.3622 9.13152 10.3622 11.0257 11.5305 12.194C11.8234 12.4869 11.8234 12.9617 11.5305 13.2546C11.2376 13.5475 10.7628 13.5475 10.4699 13.2546C8.71579 11.5006 8.71579 8.65665 10.4699 6.90257L11.7927 5.57972Z" fill="#131F60"/>
<path fill-rule="evenodd" clip-rule="evenodd" d="M12.1917 17.8846C10.4376 19.6387 7.59367 19.6387 5.83959 17.8846C4.08552 16.1306 4.08552 13.2866 5.83959 11.5326L6.50102 10.8711C6.79391 10.5782 7.26878 10.5783 7.56168 10.8711C7.85457 11.164 7.85457 11.6389 7.56168 11.9318L6.90025 12.5932C5.73196 13.7615 5.73196 15.6557 6.90025 16.824C8.06854 17.9923 9.96271 17.9923 11.131 16.824L12.4538 15.5011C13.6221 14.3328 13.6221 12.4387 12.4538 11.2704C12.161 10.9775 12.161 10.5026 12.4538 10.2097C12.7467 9.91682 13.2216 9.91682 13.5145 10.2097C15.2686 11.9638 15.2686 14.8077 13.5145 16.5618L12.1917 17.8846Z" fill="#131F60"/>
</svg>
