<svg width="24" height="24" viewBox="0 0 24 24" fill="none" xmlns="http://www.w3.org/2000/svg">
<path fill-rule="evenodd" clip-rule="evenodd" d="M5.76711 10.0744C6.04746 10.3793 6.52192 10.3992 6.82684 10.1189L12.0815 5.28761L17.3362 10.1189C17.6411 10.3992 18.1156 10.3793 18.3959 10.0744C18.6763 9.76947 18.6564 9.29501 18.3514 9.01466L12.0815 3.24996L5.8116 9.01466C5.50668 9.29501 5.48676 9.76947 5.76711 10.0744Z" fill="#131F60"/>
<path fill-rule="evenodd" clip-rule="evenodd" d="M12.0775 17.928C12.4917 17.928 12.8275 17.5922 12.8275 17.178L12.8275 4.37798C12.8275 3.96377 12.4917 3.62798 12.0775 3.62798C11.6633 3.62798 11.3275 3.96377 11.3275 4.37798L11.3275 17.178C11.3275 17.5922 11.6633 17.928 12.0775 17.928Z" fill="#131F60"/>
<path fill-rule="evenodd" clip-rule="evenodd" d="M4.13086 19.678C4.13086 20.0922 4.46665 20.428 4.88086 20.428H18.9985C19.4127 20.428 19.7485 20.0922 19.7485 19.678C19.7485 19.2638 19.4127 18.928 18.9985 18.928H4.88086C4.46665 18.928 4.13086 19.2638 4.13086 19.678Z" fill="#131F60"/>
</svg>
