<svg width="24" height="24" viewBox="0 0 24 24" fill="none" xmlns="http://www.w3.org/2000/svg">
<path fill-rule="evenodd" clip-rule="evenodd" d="M19 4.5H5C4.17157 4.5 3.5 5.17157 3.5 6V18C3.5 18.8284 4.17157 19.5 5 19.5H19C19.8284 19.5 20.5 18.8284 20.5 18V6C20.5 5.17157 19.8284 4.5 19 4.5ZM5 3C3.34315 3 2 4.34315 2 6V18C2 19.6569 3.34315 21 5 21H19C20.6569 21 22 19.6569 22 18V6C22 4.34315 20.6569 3 19 3H5Z" fill="#131F60"/>
<path d="M15.0759 11.584L10.4773 8.51823C10.145 8.29671 9.69995 8.5349 9.69995 8.93425V15.0657C9.69995 15.4651 10.145 15.7033 10.4773 15.4818L15.0759 12.416C15.3728 12.2181 15.3728 11.7819 15.0759 11.584Z" fill="#131F60"/>
</svg>
