<svg width="24" height="24" viewBox="0 0 24 24" fill="none" xmlns="http://www.w3.org/2000/svg">
<path fill-rule="evenodd" clip-rule="evenodd" d="M11.9993 5.92236C7.99222 5.92236 4.47658 8.02641 2.4969 11.19C2.15924 11.7295 2.15924 12.4133 2.4969 12.9529C4.47658 16.1165 7.99222 18.2205 11.9993 18.2205C16.0063 18.2205 19.522 16.1165 21.5017 12.9529C21.8393 12.4133 21.8393 11.7295 21.5017 11.19C19.522 8.02641 16.0063 5.92236 11.9993 5.92236ZM11.9853 16.3924C14.3388 16.3924 16.2467 14.4845 16.2467 12.1309C16.2467 9.77742 14.3388 7.86952 11.9853 7.86952C9.63174 7.86952 7.72384 9.77742 7.72384 12.1309C7.72384 14.4845 9.63174 16.3924 11.9853 16.3924Z" fill="#131F60"/>
<path d="M14.1757 12.132C14.1757 13.3423 13.1944 14.3235 11.9841 14.3235C10.7737 14.3235 9.79248 13.3423 9.79248 12.132C9.79248 10.9216 10.7737 9.94037 11.9841 9.94037C13.1944 9.94037 14.1757 10.9216 14.1757 12.132Z" fill="#131F60"/>
</svg>
