<svg width="24" height="24" viewBox="0 0 24 24" fill="none" xmlns="http://www.w3.org/2000/svg">
<path fill-rule="evenodd" clip-rule="evenodd" d="M17.9658 8.7868H5.96582C5.13739 8.7868 4.46582 9.45838 4.46582 10.2868V17.5C4.46582 18.3284 5.13739 19 5.96582 19H17.9658C18.7942 19 19.4658 18.3284 19.4658 17.5V10.2868C19.4658 9.45838 18.7942 8.7868 17.9658 8.7868ZM5.96582 7.2868C4.30897 7.2868 2.96582 8.62995 2.96582 10.2868V17.5C2.96582 19.1569 4.30897 20.5 5.96582 20.5H17.9658C19.6227 20.5 20.9658 19.1569 20.9658 17.5V10.2868C20.9658 8.62995 19.6227 7.2868 17.9658 7.2868H5.96582Z" fill="#131F60"/>
<path fill-rule="evenodd" clip-rule="evenodd" d="M14.838 5.69323C14.5409 5.05155 13.7712 4.78385 13.14 5.10272L4.92846 9.25144C4.55875 9.43823 4.10762 9.28994 3.92084 8.92023C3.73405 8.55052 3.88234 8.0994 4.25204 7.91261L12.4636 3.76389C13.8521 3.06238 15.5456 3.65131 16.1992 5.06301L17.4473 7.75871C17.6213 8.13459 17.4577 8.58039 17.0818 8.75442C16.706 8.92845 16.2602 8.76482 16.0861 8.38894L14.838 5.69323Z" fill="#131F60"/>
</svg>
