<svg width="24" height="24" viewBox="0 0 24 24" fill="none" xmlns="http://www.w3.org/2000/svg">
<path fill-rule="evenodd" clip-rule="evenodd" d="M18 5.5H6C5.17157 5.5 4.5 6.17157 4.5 7V17C4.5 17.8284 5.17157 18.5 6 18.5H18C18.8284 18.5 19.5 17.8284 19.5 17V7C19.5 6.17157 18.8284 5.5 18 5.5ZM6 4C4.34315 4 3 5.34315 3 7V17C3 18.6569 4.34315 20 6 20H18C19.6569 20 21 18.6569 21 17V7C21 5.34315 19.6569 4 18 4H6Z" fill="#131F60"/>
<path fill-rule="evenodd" clip-rule="evenodd" d="M12 12.5C13.1046 12.5 14 11.6046 14 10.5C14 9.39543 13.1046 8.5 12 8.5C10.8954 8.5 10 9.39543 10 10.5C10 11.6046 10.8954 12.5 12 12.5ZM12 14C13.933 14 15.5 12.433 15.5 10.5C15.5 8.567 13.933 7 12 7C10.067 7 8.5 8.567 8.5 10.5C8.5 12.433 10.067 14 12 14Z" fill="#131F60"/>
<path fill-rule="evenodd" clip-rule="evenodd" d="M12 15.75C10.2051 15.75 8.75 17.2051 8.75 19H7.25C7.25 16.3766 9.37665 14.25 12 14.25C14.6234 14.25 16.75 16.3766 16.75 19H15.25C15.25 17.2051 13.7949 15.75 12 15.75Z" fill="#131F60"/>
</svg>
