<svg width="24" height="24" viewBox="0 0 24 24" fill="none" xmlns="http://www.w3.org/2000/svg">
<path fill-rule="evenodd" clip-rule="evenodd" d="M6.69661 6.34313C7.08713 5.9526 7.64115 5.87346 7.93405 6.16635L17.8335 16.0658C18.1264 16.3587 18.0473 16.9128 17.6568 17.3033C17.2662 17.6938 16.7122 17.7729 16.4193 17.4801L6.51983 7.58056C6.22694 7.28767 6.30608 6.73365 6.69661 6.34313Z" fill="#131F60"/>
<path fill-rule="evenodd" clip-rule="evenodd" d="M6.34306 17.3033C5.95254 16.9128 5.87339 16.3588 6.16629 16.0659L16.0658 6.1664C16.3587 5.87351 16.9127 5.95265 17.3032 6.34318C17.6937 6.7337 17.7729 7.28772 17.48 7.58061L7.5805 17.4801C7.28761 17.773 6.73359 17.6939 6.34306 17.3033Z" fill="#131F60"/>
</svg>
