<svg width="24" height="24" viewBox="0 0 24 24" fill="none" xmlns="http://www.w3.org/2000/svg">
<path fill-rule="evenodd" clip-rule="evenodd" d="M12 19.5C16.1421 19.5 19.5 16.1421 19.5 12C19.5 7.85786 16.1421 4.5 12 4.5C7.85786 4.5 4.5 7.85786 4.5 12C4.5 16.1421 7.85786 19.5 12 19.5ZM12 21C16.9706 21 21 16.9706 21 12C21 7.02944 16.9706 3 12 3C7.02944 3 3 7.02944 3 12C3 16.9706 7.02944 21 12 21Z" fill="#131F60"/>
<path fill-rule="evenodd" clip-rule="evenodd" d="M9.34832 9.34833C9.64122 9.05544 10.1161 9.05544 10.409 9.34833L14.6516 13.591C14.9445 13.8839 14.9445 14.3587 14.6516 14.6516C14.3587 14.9445 13.8839 14.9445 13.591 14.6516L9.34832 10.409C9.05543 10.1161 9.05543 9.64123 9.34832 9.34833Z" fill="#131F60"/>
<path fill-rule="evenodd" clip-rule="evenodd" d="M9.34833 14.6517C9.05544 14.3588 9.05544 13.8839 9.34833 13.591L13.591 9.34838C13.8839 9.05548 14.3587 9.05548 14.6516 9.34838C14.9445 9.64127 14.9445 10.1161 14.6516 10.409L10.409 14.6517C10.1161 14.9446 9.64123 14.9446 9.34833 14.6517Z" fill="#131F60"/>
</svg>
